/* XPM */
static char *_9bf24618fa14c1cadfcd160f53b8b8bX87chAgDHc5VOIQD[] = {
/* columns rows colors chars-per-pixel */
"26 22 25 1 ",
"  c None",
". c #380312",
"X c #000022",
"o c #1D1521",
"O c #060C30",
"+ c #071033",
"@ c #0A1034",
"# c #651114",
"$ c #523D3F",
"% c #09643B",
"& c #2A3054",
"* c #33395D",
"= c #E70312",
"- c #E70036",
"; c #CE601C",
": c #E70044",
"> c #118543",
", c #E79751",
"< c #E7AF5A",
"1 c #E7B977",
"2 c #747CC7",
"3 c #9B9991",
"4 c #C5CBEF",
"5 c #DAE0FF",
"6 c #E0E6FF",
/* pixels */
"                          ",
"                          ",
"                          ",
"                          ",
"        @@@@@@@@&@        ",
"       @@&@@@@@@@&@       ",
"      @@@@+++++++@@       ",
"      ::@@::::::+@@       ",
"     :@:@@<<<<<<@@        ",
"     :@:@<<++<<++         ",
"     @@:<<,4X,,X4         ",
"     @@:<<<6@11@6         ",
"      @@,<<<55;<<         ",
"      >>@,<<=;;<%%   2    ",
"     ><<>>22222*2*2*2*22  ",
"     %,<,2**33*O*<*O*O*O  ",
"      %,:-<,***O,<*O*O*   ",
"        :-,####.--#.#     ",
"         ##>>%%%,,        ",
"         >>   %%          ",
"         $$   oo          ",
"         $$$  ooo         "
};
