/* XPM */
static char *c8fe8048d0ff48a9ef7d94bd5050fc0f1rZUYRDIGLsiPcrD[] = {
/* columns rows colors chars-per-pixel */
"64 64 157 2 ",
"   c None",
".  c black",
"X  c #160E0A",
"o  c #1A110D",
"O  c #211711",
"+  c #241812",
"@  c #2E1D14",
"#  c #301F16",
"$  c #322218",
"%  c #38261B",
"&  c #3F2A1F",
"*  c #1D2E3E",
"=  c #4B2F1F",
"-  c #442E21",
";  c #463022",
":  c #4B3224",
">  c #44352E",
",  c #4A3328",
"<  c #523728",
"1  c #573A2C",
"2  c #5A3C2C",
"3  c #4B3E36",
"4  c #4B3F38",
"5  c #5F402F",
"6  c #5D4030",
"7  c #60412F",
"8  c #654331",
"9  c #694633",
"0  c #6C4935",
"q  c #734D39",
"w  c #7E543E",
"e  c #1E3041",
"r  c #223649",
"t  c #313B48",
"y  c #273D54",
"u  c #283F56",
"i  c #2A435A",
"p  c #324E6B",
"a  c #3E556D",
"s  c #3A5B7B",
"d  c #365574",
"f  c #2E4862",
"g  c #494A4A",
"h  c #474848",
"j  c #5D504A",
"k  c #524D50",
"l  c #4C505A",
"z  c #5D5C5C",
"x  c #615551",
"c  c #7B5744",
"v  c #60605F",
"b  c #756258",
"n  c #6F6B67",
"m  c #706863",
"M  c #6D6D71",
"N  c #63727F",
"B  c #7C7B79",
"V  c #7A7674",
"C  c #80563F",
"Z  c #865A42",
"A  c #8D5F46",
"S  c #865F4A",
"D  c #8F6047",
"F  c #89634D",
"G  c #906147",
"H  c #916248",
"J  c #99664B",
"K  c #9C694D",
"L  c #8D6650",
"P  c #A56F52",
"I  c #A77052",
"U  c #AE7657",
"Y  c #B57A5A",
"T  c #B97D5C",
"R  c #987B6B",
"E  c #817D79",
"W  c #A57F6A",
"Q  c #FFE70E",
"!  c #FFE80B",
"~  c #D5CD38",
"^  c #DBD53F",
"/  c #F3DF3E",
"(  c #AB8068",
")  c #A6806B",
"_  c #B98162",
"`  c #C28361",
"'  c #CD8B67",
"]  c #CF8C68",
"[  c #D28E69",
"{  c #B9C160",
"}  c #DCD640",
"|  c #F1DE40",
" . c #D5D164",
".. c #3E6184",
"X. c #406488",
"o. c #466D95",
"O. c #48719A",
"+. c #637381",
"@. c #647E9A",
"#. c #4E7AA6",
"$. c #4E7EB2",
"%. c #507FB1",
"&. c #7C9889",
"*. c #7C9887",
"=. c #779098",
"-. c #5280AF",
";. c #5F86AF",
":. c #5382B1",
">. c #5788BA",
",. c #588ABB",
"<. c #5987B6",
"1. c #6086AE",
"2. c #6592BE",
"3. c #5B8FC2",
"4. c #6198CF",
"5. c #6A98C3",
"6. c #6299D0",
"7. c #629EDD",
"8. c #78A4CF",
"9. c #66A1DB",
"0. c #68A3DD",
"q. c #7DAAD9",
"w. c #67A4E0",
"e. c #868685",
"r. c #8F8C89",
"t. c #92908F",
"y. c #949494",
"u. c #989897",
"i. c #9A9A99",
"p. c #B8A295",
"a. c #8AB1A8",
"s. c #80ABB3",
"d. c #9FADBA",
"f. c #9AB7B1",
"g. c #A6A6A5",
"h. c #A4A4A3",
"j. c #AEADAC",
"k. c #B0A7A2",
"l. c #B3B1AF",
"z. c #BEB3AC",
"x. c #B1B1B0",
"c. c #B8B8B7",
"v. c #BEBEBD",
"b. c #C0B4AD",
"n. c #BFC0BF",
"m. c #D7D19D",
"M. c #C0C0BF",
"N. c #CECCA9",
"B. c #B3C1CF",
"V. c #BBC4C1",
"C. c #C3C3C2",
"Z. c #CBCBCA",
"A. c #CACAC9",
"S. c #CCCCCB",
"D. c #CDCDCD",
"F. c #CBCBCB",
"G. c #CDCFD0",
/* pixels */
"                                                                                                                                ",
"                                                                                                                                ",
"                                                $ $ $ % ; : : : : : : ; % $ $ $                                                 ",
"                                                $ $ $ % - : : : : : : - % $ $ $                                                 ",
"                                                $ $ $ % - : : : : : : - % $ $ $                                                 ",
"                                                & & & : 7 0 0 0 0 0 0 7 : & & &                                                 ",
"                                        $ $ $ & < 2 1 0 J U U U U U U J 0 1 2 < & $ $ $                                         ",
"                                        $ $ $ & 2 8 8 w Y [ [ ] ] [ [ Y w 8 8 2 & $ $ $                                         ",
"                                        $ $ $ & 1 8 8 w Y [ ] ' ' ] [ Y w 8 8 1 & $ $ $                                         ",
"                                        & & & : 0 w w H T ' ' ' ' ' ' T H w w 0 : & & &                                         ",
"                                $ $ $ & < 2 1 0 K Y Y T ` ' ' ' ' ' ' ` T Y Y K 0 1 2 < & $ $ $                                 ",
"                                $ $ $ & 2 8 8 C Y [ [ ] ' ' ' ' ' ' ' ' ] [ [ Y C 8 8 2 & $ $ $                                 ",
"                                $ $ $ & 2 8 8 w Y [ [ ] ' ' ' ' ' ' ' ' ] [ [ Y w 8 8 2 & $ $ $                                 ",
"                                % % % - 8 q q Z U ` ` ` ` ` ` ` ` ` ` ` ` ` ` U Z q q 8 - % % %                                 ",
"                                ; - - 1 w A A H K I I P P P P P P P P P P I I K H A A w 1 - - ;                                 ",
"                                : : : 5 Z K J J J J J J J J J J J J J J J J J J J J K Z 5 : : :                                 ",
"                                : : : 5 Z K J J J K K J J J J J J J J J J K K J J J K Z 5 : : :                                 ",
"                                : : : 5 Z J J H w q q w H J J J J J J H w q q w H J J Z 5 : : :                                 ",
"                                : : : 5 Z K K w - O O - w K J J J J K w - O O - w K K Z 5 : : :                                 ",
"                                : : : 5 Z K K q O . . O q K J J J J K q O . . O q K K Z 5 : : :                                 ",
"                                : : : 5 Z K K q + . . + q K J J J J K q + . . + q K K Z 5 : : :                                 ",
"                                ; - - 1 w H H 0 O . . + q K J J J J K q + . . O 0 H H w 1 - - ;                                 ",
"                                % % % - 8 q q 1 o . . + q K J J J J K q + . . o 1 q q 8 - % % %                                 ",
"                                $ $ $ & 2 9 9 : X . . + q K K J J K K q + . . X : 9 9 2 & $ $ $                                 ",
"                                $ $ $ & 2 0 0 : X . . + q K K J J K K q + . . X : 0 0 2 & $ $ $                                 ",
"                                $ $ $ & < 2 2 : @ X X $ q D D A A D D q $ X X @ : 2 2 < & $ $ $                                 ",
"                                        & & & - : : : 1 0 q q q q q q 0 1 : : : - & & &                                         ",
"                                        # # @ & 2 0 0 9 8 8 8 8 8 8 8 8 9 0 0 2 & @ # #                                         ",
"                                        # @ @ & 2 0 0 9 8 8 8 8 8 8 8 8 9 0 0 2 & @ @ #                                         ",
"                                        4 3 4 3 1 2 2 2 2 2 2 2 2 2 2 2 2 2 2 1 3 4 3 4                                         ",
"                                g g g z V E E m 3 & & & & & & & & & & & & & & 3 m E E V z g g g                                 ",
"                                g g g z e.i.i.E 3 @ @ # # # # # # # # # # @ @ 3 E i.i.e.z g g g                                 ",
"                                g g h z e.i.i.B 3 @ @ # # # # # # # # # # @ @ 3 B i.i.e.z h g g                                 ",
"                                z z z M y.g.g.r.x 3 3 3 3 3 3 3 3 3 3 3 3 3 3 x r.g.g.y.M z z z                                 ",
"                        g g g z B e.e.y.l.M.M.j.r.B B E E E E E E E E E E B B r.j.M.M.l.y.e.e.B z g g g                         ",
"                        g g g z e.u.u.g.v.D.D.v.g.u.u.u.u.u.u.u.u.u.u.u.u.u.u.g.v.D.D.v.g.u.u.e.z g g g                         ",
"                        g g h z e.u.u.h.v.D.D.v.g.u.u.u.u.u.u.u.u.u.u.u.u.u.u.g.v.D.D.v.h.u.u.e.z h g g                         ",
"                        j j j m t.g.h.j.C.A.A.C.j.h.h.h.h.h.h.h.h.h.h.h.h.h.h.j.C.A.A.C.j.h.g.t.m j j j                         ",
"                : : : 6 c F S R k.n.v.C.A.A.A.A.C.v.v.v.v.v.v.v.v.v.v.v.v.v.v.C.A.A.A.A.C.v.n.k.R S F c 6 : : :                 ",
"                : : : 2 Z J J ) b.D.D.D.S.A.A.A.A.A.A.A.A.A.A.A.A.A.A.A.A.A.A.A.A.A.A.S.D.D.D.b.) J J Z 2 : : :                 ",
"                : : : 2 Z J J W b.D.D.D.D.S.S.S.A.A.A.A.A.A.A.A.A.A.A.A.A.A.A.A.S.S.S.D.D.D.G.b.W J J Z 2 : : :                 ",
"                : : : 8 G I P ( p.z.b.z.l.x.x.c.C.A.A.A.A.A.A.A.A.A.A.A.A.A.A.C.c.x.x.l.z.z.z.p.( P I G 8 : : :                 ",
"                : : : 9 P ` ` _ ( W W R E B B t.c.S.A.A.A.A.A.A.A.A.A.A.A.A.S.c.t.B B E R W W ( _ ` ` P 9 : : :                 ",
"                : : : 0 U [ [ ` P J J L b v z B l.S.S.A.A.F.F.F.F.F.F.A.A.S.S.l.B z v b L J J P ` [ [ U 0 : : :                 ",
"                : : : 0 U [ [ ` I J J L b v v B l.S.S.A.F.F.F.F.F.F.F.F.A.S.S.l.B v v b L J J I ` [ [ U 0 : : :                 ",
"                : : : 9 J U U P G Z Z b M +.N =.d.B.B.V.N.m.m.m.m.m.m.N.V.B.B.d.=.N +.M b Z Z G P U U J 9 : : :                 ",
"                        9 0 0 9 8 2 2 x @.5.2.5.8.q.q.f. ./ / | | / /  .f.q.q.8.5.2.5.@.x 2 2 8 9 0 0 9                         ",
"                        : : : : : ; = k ;.w.0.9.9.7.7.a.^ ! Q Q Q Q ! ^ a.7.7.9.9.0.0.1.k = : : : : : :                         ",
"                        : : : : : : = k 1.0.0.9.9.7.7.a.} ! ! Q Q ! ! } a.7.7.9.9.0.0.1.k = : : : : : :                         ",
"                        : : : , > > > l ;.0.9.9.9.7.7.s.{ ~ ~ ~ ~ ~ ~ { s.7.7.9.9.9.0.;.l > > > , : : :                         ",
"                                t t t a <.0.9.9.9.9.9.5.=.*.*.&.&.*.*.=.5.9.9.9.9.9.0.<.a t t t                                 ",
"                                i u u s >.0.0.9.9.9.9.6.>.$.$.$.$.$.$.>.6.9.9.9.9.0.0.>.s u u i                                 ",
"                                i u u s ,.0.0.9.9.9.9.6.>.%.:.:.:.:.%.>.6.9.9.9.9.0.0.,.s u u i                                 ",
"                                y y y d :.6.6.4.4.4.6.3.#.O.O.O.O.O.O.#.3.6.4.4.4.4.6.:.d y y y                                 ",
"                                r r e f O.,.,.>.>.>.,.#.s p p p p p p s #.,.>.>.>.,.,.O.f e r r                                 ",
"                                e * * i o.:.:.-.-.:.:.O.p y u u u u y p O.:.:.-.-.-.:.o.i * * e                                 ",
"                                e * * i o.:.:.:.:.:.:.O.p u u u u u u p O.:.:.:.:.:.:.o.i * * e                                 ",
"                                e * * i ..o.o.o.o.o.o.X.p u u u u u u p X.o.o.o.o.o.o...i * * e                                 ",
"                                        i i i i i i i i                 i i i i i i i i                                         ",
"                                        * * * * * * * *                 * * * * * * * *                                         ",
"                                        * * * * * * * *                 * * * * * * * *                                         ",
"                                        e e e e e e e e                 e e e e e e e e                                         ",
"                                                                                                                                ",
"                                                                                                                                "
};
