/* XPM */
static char *c4e26bd38c01400dd1cafe4699cdb7f3Rj0OTMnLnEkP4pdS[] = {
/* columns rows colors chars-per-pixel */
"64 64 177 2 ",
"   c None",
".  c #000108",
"X  c #34280E",
"o  c #1F232B",
"O  c #34302A",
"+  c #67501E",
"@  c #6A5935",
"#  c #695D44",
"$  c #A73E0D",
"%  c #AE4D1F",
"&  c #B24815",
"*  c #B34B1A",
"=  c #B44916",
"-  c #AA5214",
";  c #AE5619",
":  c #B55D1E",
">  c #B95A1F",
",  c #AB701C",
"<  c #B2751B",
"1  c #AE5A24",
"2  c #BE5322",
"3  c #BF5829",
"4  c #BB6324",
"5  c #B57721",
"6  c #B57D2A",
"7  c #BF693F",
"8  c #BC6338",
"9  c #C7551D",
"0  c #C8561E",
"q  c #D1581F",
"w  c #D0571D",
"e  c #C65722",
"r  c #C45C2A",
"t  c #CB5C26",
"y  c #D15A21",
"u  c #D15E29",
"i  c #C86422",
"p  c #C8682B",
"a  c #C57729",
"s  c #DF6A32",
"d  c #CC7D30",
"f  c #DD703A",
"g  c #D4632D",
"h  c #E16B33",
"j  c #EB743D",
"k  c #BC6A42",
"l  c #BF734E",
"z  c #BB7846",
"x  c #BF7450",
"c  c #C16C43",
"v  c #DC7848",
"b  c #C07652",
"n  c #C97F5B",
"m  c #F77C41",
"M  c #F97E43",
"N  c #E07A49",
"B  c #B6851E",
"V  c #B68522",
"C  c #B88721",
"Z  c #B78824",
"A  c #BB8A25",
"S  c #BE8E2A",
"D  c #B8812F",
"F  c #BE943C",
"G  c #C08E26",
"H  c #C08F28",
"J  c #CB8B2C",
"K  c #C1912B",
"L  c #CE9A2D",
"P  c #C8952C",
"I  c #D19C2F",
"U  c #CC9B34",
"Y  c #CC9D39",
"T  c #C79630",
"R  c #D19E31",
"E  c #D99B38",
"W  c #D89636",
"Q  c #D5A134",
"!  c #DAA536",
"~  c #DBA639",
"^  c #DDA93B",
"/  c #E3AD3D",
"(  c #BA8745",
")  c #BF9541",
"_  c #BC944A",
"`  c #BF9C53",
"'  c #D1854E",
"]  c #C09742",
"[  c #C49D4C",
"{  c #CD9F40",
"}  c #DD865C",
"|  c #DC8257",
" . c #C09E56",
".. c #C19E58",
"X. c #EB804E",
"o. c #F78853",
"O. c #CEA245",
"+. c #CEA34C",
"@. c #DAAA46",
"#. c #CDA655",
"$. c #C1A159",
"%. c #E7A543",
"&. c #E9A744",
"*. c #ECAD47",
"=. c #E3AF41",
"-. c #E7B141",
";. c #EAB445",
":. c #EFB847",
">. c #EEB248",
",. c #EEB94B",
"<. c #F4BD4B",
"1. c #F8BF4F",
"2. c #F2BB47",
"3. c #E9BA57",
"4. c #EFBF5B",
"5. c #CC8F72",
"6. c #CC9174",
"7. c #DF9673",
"8. c #E69C78",
"9. c #E6936A",
"0. c #C9A761",
"q. c #CAA964",
"w. c #CCAF75",
"e. c #CEB27A",
"r. c #EDBF60",
"t. c #F7A178",
"y. c #F7C14E",
"u. c #FBC34E",
"i. c #EFC05E",
"p. c #FDC552",
"a. c #FFC853",
"s. c #FCC758",
"d. c #FECA5A",
"f. c #FDCC66",
"g. c #FECF6C",
"h. c #F0C262",
"j. c #FFD16D",
"k. c #F0C771",
"l. c #FACF77",
"z. c #FFD476",
"x. c #FCD27A",
"c. c #888C94",
"v. c #BCAD8E",
"b. c #BEAF90",
"n. c #D1B781",
"m. c #DCB19C",
"M. c #DBBB9E",
"N. c #EAA585",
"B. c #F8AF8C",
"V. c #F8B08C",
"C. c #E7BAA5",
"Z. c #DFC183",
"A. c #EBC881",
"S. c #E0C286",
"D. c #F0CF8B",
"F. c #FDDA8F",
"G. c #F5D38C",
"H. c #EBCF94",
"J. c #FFDC93",
"K. c #DFCBA2",
"L. c #D5C4A9",
"P. c #E1CEA9",
"I. c #E2C7A3",
"U. c #FFE3A5",
"Y. c #FFE6A8",
"T. c #FFF0BF",
"R. c #ECD5CB",
"E. c #ECDDCA",
"W. c #EBD3C7",
"Q. c #F4D9CC",
"!. c #F4D7C9",
"~. c #EEDBD1",
"^. c #F5DCD0",
"/. c #ECE1CB",
"(. c #EEE5D2",
"). c #F6E7DB",
"_. c #FFFFFF",
/* pixels */
"                                                                                                                                ",
"                                                                                                                                ",
"                                                                                                                                ",
"                                                                                                                                ",
"                                                                                                                                ",
"                                                                                                                                ",
"                                                    _._._._._._._._._._._._._._.                                                ",
"                                                    /.E.E././././././././.E.E./.                                                ",
"                                                _.(.e.`  . . . . . . . . . .` e.(._.                                            ",
"                                                (.P.q.F ) ] ] ] ] ] ] ] ] ) F q.P.(.                                            ",
"                                            _.(.e.0.Z.H.H.H.H.H.H.H.H.H.H.H.H.Z.0.e.(._.                                        ",
"                                            (.P.0.#.D.U.U.U.U.U.U.U.U.U.U.U.U.D.#.0.P.(.                                        ",
"                                        _./.e.q.Z.D.l.g.g.g.g.g.g.g.g.g.g.g.g.l.D.Z.q.e./._.                                    ",
"                                        _.E.` F A.J.f.u.u.u.u.p.p.p.p.p.p.u.u.f.J.A.F ` E._.                                    ",
"                                        _./. .S 3.j.d.a.u.u.u.p.p.p.p.p.p.p.p.s.f.3.S  ./._.                                    ",
"                                        _./...G -.,.O.+.k.z.d.p.p.p.p.p.p.p.p.a.a.-.S $./._.                                    ",
"                                        _./...K ;.{ + # L.T.z.u.p.p.p.p.p.a.a.a.a.;.S $./._.                                    ",
"                                        _./...K :.F X o c.L.k.u.p.p.p.1.*.%.%.&.&.W 5 ( M.R.                                    ",
"                                        _./...K :.F X . o # +.a.p.p.a.>.d 4 4 4 4 4 ; 1 8 6.~._.                                ",
"                                        _./...K :.+.@ O O @ O.a.a.1.>.W p 2 2 2 2 3 8 8 8 n C.~.                                ",
"                                        _./...G -.h.n.b.v.e.r.p.a.*.d p f j j j j X.8.N.N.7.n 6.~._.                            ",
"                                        _./...S -.f.J.Y.Y.J.f.p.a.%.4 * h M M m m o.t.B.V.9.r k m.R.                            ",
"                                        _./...S -.s.f.j.j.f.s.p.a.%.4 * u h h s s s v v N f u r 7 6.R._.                        ",
"                                        _./. .A / y.p.p.p.p.p.p.p.*.a > e e e e e e 9 9 9 9 0 r 7 6.R._.                        ",
"                                        _./. .B Q ;.y.p.p.p.p.p.p.2.E a > * * * * * & & & & & c m.R.                            ",
"                                        _./.e.[ U ! ;.y.p.p.p.p.p.y.;.E a : : : ; 1 k b b x l 6.~._.                            ",
"                            _._._._._._.    (.K.[ G ! ;.y.p.p.p.p.p.y.:.E J J J < ( M.R.R.W.W.R.                                ",
"                            /.E.E.E.E./.    _.(.e.[ Y ! ;.<.<.<.<.<.<.:./ ! Q Y [ e.(._._._._._.                                ",
"                        _.(.e.`  . .` e.(._.    (.K.[ K ! / / / / / / / ^ R G [ K.(.                                            ",
"                        (.P.q.F ) ) F q.P.(.    _.(...V L ! ! ! ! ! ! ! ~ L V ../._.                                            ",
"                    _.(.e.0.Z.H.H.H.H.Z.0.w./._._.(...V L ! ! ! ! ! ! ! ~ L V ../._.                                            ",
"                    (.P.0.#.D.U.U.U.U.D.#.0.P././.I.#.P ! / / / / / / / ^ L V ../._.                                            ",
"                _./.e.q.Z.D.l.g.j.j.j.x.D.S.q.` ` #.@.:.2.<.<.<.<.<.<.:./ L V ../._.                                            ",
"                _.E.` F A.J.f.y.:.-.-.4.F.D.O.A A Y i.j.j.f.s.p.p.p.p.y.;.Q G [ K.(.                                            ",
"                _./. .S 3.j.s.:.U S S Y i.f.,.-.-.4.F.U.U.F.f.u.p.p.p.p.y.;.! Y [ e./._.                                        ",
"                _./...S -.y.2.@.T S S Y :.p.p.p.p.f.F.U.U.J.x.f.s.p.p.p.p.y.;.Q B  ./._.                                        ",
"                _./...H -.,.Y T ^ ;.;.:.y.p.p.p.p.s.f.g.f.x.J.J.f.p.p.p.p.p.y./ A  ./._.                                        ",
"                _./...H ;.;.H S ;.a.a.p.p.p.p.p.p.p.p.u.u.f.J.J.f.p.p.p.p.p.a.;.S ../._.                                        ",
"                _./...H ;.;.H S ;.a.p.p.p.p.p.p.p.p.p.p.p.s.f.f.s.p.p.p.p.p.a.;.S ../._.                                        ",
"                _./...S / =.S H ;.a.p.p.p.p.p.p.p.p.p.p.p.p.p.p.p.p.p.p.p.p.y./ S ../._.                                        ",
"                _./...A Q Q A S ;.a.p.p.p.p.p.p.p.p.p.p.p.p.p.p.p.p.p.p.p.y.;.Q A ../._.                                        ",
"                _./. .B L R K K ^ ,.p.p.p.p.p.p.p.p.p.p.p.p.p.p.,.;.2.<.<.:./ L B  ./._.                                        ",
"                _./. .B L ! Q T K Y ,.a.a.p.p.p.p.p.p.p.p.a.a.,.Y T ~ / / / ^ L B  ./._.                                        ",
"                _./.e.[ U R ! R S K ^ ;.;.;.;.;.;.;.;.;.;.;.;.^ K S R ! ~ ! I U [ e./._.                                        ",
"                    (.K.[ A R ! R T K S K K K K K K K K K K S K T R ! ~ ~ I A [ K.(.                                            ",
"                    _.(.e.[ U R ! Q K Z Z A A A A A A A A Z Z K Q ^ ^ ! R U [ e.(._.                                            ",
"                        (.K.[ G R ! Q R R R U R U R R R R R R R ! ^ ^ R A [ K.(.                                                ",
"                        _.(.e.[ U L U R R R R R U I I I I R R R R R I U [ e.(._.                                                ",
"                            (.K.[ B Z A A A A A A C C C C A A A A A B [ K.(.                                                    ",
"                            _.(.e._ 6 5 5 5 5 D _ $... . ._ 6 , , 6 _ e.(._.                                                    ",
"                                (.I.' i i i i ' I.(./././.M.z - - z K.).                                                        ",
"                                _.^.} q y y y v C.)._._._.R.l $ $ k m.~.                                                        ",
"                                _.Q.} w q y y g v N.)._._.W.l $ $ % 8 6.R._.                                                    ",
"                                _.^.8.} } } } } | 8.Q._._.R.6.l b l l 5.R._.                                                    ",
"                                    ^.Q.Q.Q.Q.Q.!.Q.        R.W.W.W.W.R.                                                        ",
"                                    _._._._._._._._.        _._._._._._.                                                        ",
"                                                                                                                                ",
"                                                                                                                                ",
"                                                                                                                                ",
"                                                                                                                                ",
"                                                                                                                                ",
"                                                                                                                                ",
"                                                                                                                                ",
"                                                                                                                                "
};
