/* XPM */
static char *_1d476843b844d5cbf4ae9feaa3c94ba44xECX1k1Oi4p3ab[] = {
/* columns rows colors chars-per-pixel */
"40 59 32 1 ",
"  c None",
". c #20140D",
"X c #261810",
"o c #2D1C11",
"O c #122B11",
"+ c #163315",
"@ c #183A17",
"# c #362215",
"$ c #3E3010",
"% c #462F1A",
"& c #4A3914",
"* c #4B3B14",
"= c #4E3E14",
"- c #593715",
"; c #543820",
": c #1D451C",
"> c #35600C",
", c #3F730F",
"< c #544216",
"1 c #584517",
"2 c #594718",
"3 c #644F1B",
"4 c #70481A",
"5 c #68531C",
"6 c #69531C",
"7 c #427015",
"8 c #7C6322",
"9 c #865620",
"0 c #4E831A",
"q c #4F851A",
"w c #59951D",
"e c #5D9C1F",
/* pixels */
"                                        ",
"                    qqww                ",
"            qww    ,,>>,w               ",
"           ,,qww  ::>>::, wq            ",
"          0,+,,qq::O>OO::w::q           ",
"        007OO+,,,7@OOO::qq:OO:@:        ",
"      e077>>:OO,>>7:O::qq:O@@@7qq:      ",
"     qee7>>O+O+O>>7O@:qq,OO@qqeeeq      ",
"     eeq>>+O+++OO>>OOqq>O@@7eeeeqqq     ",
"    qeqq,OOO:@++OOOOOq,OO@7eee,qqqqe    ",
"   qqqq,,++:@@>>>@OOOOOOO:qe,,+,,qeee   ",
"   qeq,,++0@:>777>OOOOOOOO+,OOOOO,qeq   ",
"  qeq,,+Oee@:7qeq7OOO77qqOOOO@@@@O,qeq  ",
"  qq,,+O7eq@qqeeqqOO@>,qqq+O+qq@@@O,qq  ",
"  q,,++Oqq,@qeeeqqO@O>>qeq@@+,qq@@O,qq  ",
" qq,,OO@q,+@eeeqqq+:+O>>eeq7@O,7:@@O,qq ",
" q,>OO@:,+@7eqq77Oq::O>,0077@@O>O::+,qq ",
" q,O@@::@@@qq777OOqe:+>>>00q@@@@@O::+,q ",
" 7>O@OO:@@q777OOO@,q0@+O>,eqq@7qqO :+,q ",
" 7@@OO @qO77OO+,:@o>q.#O>>,qq:@77q  :+, ",
" : OO  qqO@++:,,::@1,$-O+O>,qq:@>7    : ",
"   O  :q7+:::,,,+::@&$-:O++:>q::>>>     ",
"     ::7O@:OO,,+O+:@$&=:+:O@@@:::>>     ",
"     :@O:@@+O,+OO+>:.Xo::OOO+@@@:@>     ",
"     @@ O OO OO OO>6$$-::O+O+@ @@@@@    ",
"     @  O OO  : OO:6$$-:> OOO@   O  :   ",
"        O  O  : O &:&$=O> + OO   O      ",
"        +  O  > O ;>:::Oq:>  O   O      ",
"        +  O  : O 28>q>>q>   O   O      ",
"           O  > O 283<4Oq    @   @      ",
"           +  >   283<9Oq    @   @      ",
"           +  q  ;##o% O>    @          ",
"           +  >  283<4 Oq    @          ",
"           +  q: 283<4 O>    @          ",
"              qO 28<<5Oq                ",
"               qO##oOO>                 ",
"                qOOOq>                  ",
"                2>qq4                   ",
"                283<8                   ",
"                ;###;                   ",
"                28339                   ",
"                28339                   ",
"                28338                   ",
"               ;####                    ",
"               28339                    ",
"               28339                    ",
"               28338                    ",
"               ;###;                    ",
"               28339                    ",
"               28339                    ",
"               28338                    ",
"               ;####                    ",
"              283393                    ",
"              283393                    ",
"              283383                    ",
"              ;###;;%                   ",
"              28334<<                   ",
"             225<<5<<                   ",
"             <&6<<5<<                   "
};
