/* XPM */
static char *fba35ceb9c044aace963c126532ffd04lIHOuEhAu9mqpBoL[] = {
/* columns rows colors chars-per-pixel */
"64 64 241 2 ",
"   c None",
".  c #332E3C",
"X  c #6D353C",
"o  c #2B3B46",
"O  c #4C3546",
"+  c #752D46",
"@  c #782F46",
"#  c #712A48",
"$  c #7C3144",
"%  c #773146",
"&  c #623C4D",
"*  c #15584B",
"=  c #1A4E48",
"-  c #284C49",
";  c #176852",
":  c #187959",
">  c #17624F",
",  c #2F6F57",
"<  c #346F6C",
"1  c #534D46",
"2  c #6E7454",
"3  c #4D4D69",
"4  c #734D70",
"5  c #4D6977",
"6  c #705847",
"7  c #7F423C",
"8  c #8D3A3E",
"9  c #86353E",
"0  c #943E3C",
"q  c #9A3A3B",
"w  c #95293B",
"e  c #A6393B",
"r  c #B73839",
"t  c #AF2736",
"y  c #CA2734",
"u  c #C6383C",
"i  c #D93A3C",
"p  c #D83637",
"a  c #D92D37",
"s  c #E43A37",
"d  c #9C4339",
"f  c #97443B",
"g  c #8C4C3D",
"h  c #AA4436",
"j  c #A14639",
"k  c #A54B3B",
"l  c #A84F3C",
"z  c #A84B36",
"x  c #AC523C",
"c  c #AA5435",
"v  c #B2543B",
"b  c #B55B3E",
"n  c #BB5B3B",
"m  c #B45633",
"M  c #B74F32",
"N  c #BC642C",
"B  c #B36A3A",
"V  c #976C3C",
"C  c #FA6B1D",
"Z  c #FA721C",
"A  c #FB7B19",
"S  c #EF6B1D",
"D  c #CC542B",
"F  c #C4572D",
"G  c #D65829",
"H  c #C8463A",
"J  c #C15F3D",
"K  c #D44E36",
"L  c #F75927",
"P  c #E9502F",
"I  c #C6682A",
"U  c #D87924",
"Y  c #C3623D",
"T  c #CD693E",
"R  c #CA663D",
"E  c #D16C3E",
"W  c #DB6A35",
"Q  c #D6743D",
"!  c #D97B3D",
"~  c #CF7129",
"^  c #EA6422",
"/  c #E76A23",
"(  c #F66823",
")  c #EB7928",
"_  c #EE7129",
"`  c #843542",
"'  c #8A3442",
"]  c #853944",
"[  c #8A3C44",
"{  c #913F41",
"}  c #832E43",
"|  c #A43441",
" . c #C13740",
".. c #884945",
"X. c #964342",
"o. c #9A4743",
"O. c #9E5148",
"+. c #89574E",
"@. c #A64D42",
"#. c #AC5340",
"$. c #A05248",
"%. c #A65644",
"&. c #B65E41",
"*. c #B55B44",
"=. c #A35B57",
"-. c #936C4E",
";. c #A8684A",
":. c #B76141",
">. c #BA6140",
",. c #BD6B4B",
"<. c #B96A46",
"1. c #AA6C51",
"2. c #954D6A",
"3. c #AB6B6D",
"4. c #A75767",
"5. c #CF4B42",
"6. c #C46C44",
"7. c #C86B43",
"8. c #D06D40",
"9. c #D26446",
"0. c #CB7346",
"q. c #C87847",
"w. c #D47442",
"e. c #DA7B43",
"r. c #D57B47",
"t. c #C86C56",
"y. c #C76956",
"u. c #CA7557",
"i. c #D17858",
"p. c #C57778",
"a. c #15845D",
"s. c #179965",
"d. c #1C8B61",
"f. c #258863",
"g. c #339B64",
"h. c #309866",
"j. c #1AB56F",
"k. c #1CBA72",
"l. c #1BAB6C",
"z. c #39A969",
"x. c #2CAD7A",
"c. c #27B675",
"v. c #2EB06F",
"b. c #30915D",
"n. c #4D8B5C",
"m. c #6D8C58",
"M. c #56956A",
"N. c #4DAE68",
"B. c #6AB666",
"V. c #6C8C60",
"C. c #15C474",
"Z. c #67C469",
"A. c #75CE6C",
"S. c #EB8A1C",
"D. c #FB8918",
"F. c #FA9217",
"G. c #DB873B",
"H. c #D59538",
"J. c #CC9138",
"K. c #E88529",
"L. c #E79626",
"P. c #E98729",
"I. c #D1AB35",
"U. c #8F9751",
"Y. c #B09450",
"T. c #B8B34C",
"R. c #B0B053",
"E. c #93B55A",
"W. c #DD8044",
"Q. c #D7834D",
"!. c #DD844A",
"~. c #DA8A4A",
"^. c #D6845B",
"/. c #D48F55",
"(. c #E38C4C",
"). c #E28845",
"_. c #E6914E",
"`. c #E6904E",
"'. c #E8924F",
"]. c #E9954F",
"[. c #EA944F",
"{. c #EA994A",
"}. c #ED9D50",
"|. c #EB9851",
" X c #C3AE46",
".X c #EEA251",
"XX c #F1A351",
"oX c #F4AB52",
"OX c #F1A54D",
"+X c #DC9867",
"@X c #9DD45D",
"#X c #9BCA5F",
"$X c #B4C649",
"%X c #A8C859",
"&X c #A7D252",
"*X c #9DCC62",
"=X c #9BC563",
"-X c #87D869",
";X c #91DA69",
":X c #97D864",
">X c #94CF7C",
",X c #91CD7C",
"<X c #8CE268",
"1X c #A4D561",
"2X c #B98438",
"3X c #766897",
"4X c #656587",
"5X c #925C9B",
"6X c #965284",
"7X c #956299",
"8X c #BF6E83",
"9X c #B06A89",
"0X c #AF6E90",
"qX c #816BA2",
"wX c #9171B0",
"eX c #B675B5",
"rX c #B87AB6",
"tX c #B073AD",
"yX c #A25B84",
"uX c #C27483",
"iX c #A87ACA",
"pX c #459C8A",
"aX c #428E80",
"sX c #64829A",
"dX c #739D8B",
"fX c #748AA5",
"gX c #61AC94",
"hX c #98BCA0",
"jX c #95BDA2",
"kX c #9C9CAF",
"lX c #D3918D",
"zX c #C48EBC",
"xX c #97C1A2",
"cX c #AD81DA",
"vX c #A38DDB",
"bX c #A590DF",
"nX c #B289DC",
"mX c #9EA5C7",
"MX c #9CA7C8",
"NX c #A590E0",
"BX c #9C91CC",
/* pixels */
"                                                                                                                                ",
"                                                                                                                                ",
"                                                                                                                                ",
"                                                                                                                                ",
"                          + + + + + $ ` 8 0 d d d d d d d d d d d d d d d d d d d d d d d d d d d d d                           ",
"                        $ $ $ @ $ $ $ [ 0 d d j d d d d d d d d d d d d d d d d d d d d d d d d d d d d                         ",
"                        ] ] ] ] ] ] [ X.f k l x x l l l l l l l l l l l l l l l l l l l l l l l l l l l                         ",
"                      [ { X.X.X.X.X.o.@.#.*.&.>.>.&.&.&.&.&.:.:.:.:.:.:.:.:.&.&.&.&.&.&.&.&.>.>.>.&.&.b x                       ",
"                  @ ` { o.@.#.x #.#.*.&.6.6.0.0.0.0.0.0.0.0.0.0.0.0.0.0.0.0.0.0.0.0.0.0.0.0.0.0.0.0.6.>.v k d                   ",
"                + $ ] X.#.n Y Y Y Y 7.7.r.Q.!.!.!.!.!.!.!.!.!.!.!.!.!.!.!.!.!.!.!.!.!.!.!.!.!.!.!.!.r.6.:.l d d                 ",
"                @ $ [ o.*.7.T E T T E w.!.(.`.'.].].].'.`.`.`.(.(.(.(.(.(.`.`.`.'.].].'.`.`.`.`.'.(.!.r.6.b x l                 ",
"              $ $ ` { @.>.0.w.w.Q E E e.!.(.].|.}.XXXX}.|.].'.'.'.'.'.'.'.].].|.}.XXXX}.|.].'.].].'.(.!.r.q.<.:.b               ",
"          @ $ ` 9 8 f #.6.r.W.e.w.E E w.!.(.].}.XXoXoXXX}.].'.`.`.`.`.`.`.'.].}.XXoXoXXX}.].'.'.'.'.`.`.(.~.Q.q.:.x d           ",
"        @ $ $ ` 8 f k &.0.Q.!.W.w.E E w.W.(.]..XoXoXoXoX}.].`.(.`.`.`.`.(.`.].}.oXoXoXoX}.].`.(.`.`.].}..X.X{.Q.<.x d q         ",
"        $ $ ` 8 0 d x >.0.Q.!.e.w.E E w.W.(.].}.oXoXoXoX}.].`.`.'.].].'.`.`.].}.oXoXoXoX}.].`.(.(.`.]..XoXoX.X~.6.b k d         ",
"      $ ` ` 8 0 d x n Y w.e.e.e.w.T E w.W.(.].}.XXoXoXXX|.].'.].|.}.}.|.].'.].|.XXoXoXXX|.'.(.(.(.`.].}.oXoX.X!.0.b l k j       ",
"@ $ $ ` 9 8 0 d l n Y T w.w.w.w.E T E w.!.(.'.|.}.}.}.|.].].].}.XXoXoXXX}.].].].}.}.}.|.].'.(.(.(.`.].|..X.X{.!.0.Y n v z k d   ",
"@ $ $ ` 8 f d l m J R T T E E E T T E w.!.(.`.'.].].].`.`.`.].}.XXoXoXXX}.].`.`.`.].].].'.'.`.`.`.`.`.'.].].(.!.w.T Y m l k d d ",
"+ $ ` [ f k x b n Y Y Y Y Y R R T E w.e.e.).(.(.(.(.(.(.(.(.(.{..XoXoX.X{.(.(.(.(.(.(.(.].].].'.(.(.(.(.(.(.(.W.e.w.T n v k d d ",
"+ $ ` X.@.&.>.Y Y n n n n n n Y T w.e.e.e.e.e.e.W.e.e.e.e.W.).)._.{.{._.).).W.e.e.e.).(.{.}.}.{.(.).W.e.e.e.W.).).).W.0.b k d 0 ",
"+ $ ] o.*.6.0.7.Y m v z z c m Y 0.e.W.W.! ! Q Q Q Q Q Q Q Q ! ! G.G.G.G.! ! Q Q Q Q ! ).{.OXOX{.).! Q Q Q Q e.).{.{.`.r.B x d 0 ",
"+ $ [ O.<.r.r.0.>.x k j j k x >.0.Q.!.W.e.w.8.8.8.8.8.8.8.8.8.w.w.w.w.w.w.8.8.7.7.8.w.(.}.oXoX}.(.w.8.T 7.8.w.!.{.OX}.~.<.x d 8 ",
"+ $ [ O.<.q.q.6.*.$.o.o.o.o.$.<.u.^.^.^.i.u.t.t.t.t.t.t.t.t.t.t.t.t.t.t.t.t.t.y.y.t.i.^.+X+X+X+X^.i.t.y.y.t.u.^./.}.|./.,.x d 8 ",
"+ $ [ o.%.;.;.=.=.2.2.2.2.2.4.4.3.p.p.p.p.p.uX8X8X8X8X8X8X8X8X8X8X8X8X8X8X8X8X8X8X8XuXlXlXlXlXlXlXuX8X8X8X8Xp.p.^.^.^.u.<.%.f 9 ",
"      7 ....+.+.2.2.6X6X6X6X6XyX9X9X0X0XtXeXeXeXeXeXeXeXeXeXeXeXeXeXeXeXeXeXeXeXeXeXrXzXzXzXzXzXzXrXeXeXeXeXtX0X9X3.3.=.=.    9 ",
"        O & & 4 4 6X5X5X5X5X5X5X7X7X7XtXiXiXcXcXcXcXcXcXcXcXcXcXcXcXcXcXcXcXcXcXcXcXcXcXnXnXnXnXcXcXcXcXcXcXiXwX5X6X4 4         ",
"        . O O 3 4 3XqXqXqXqXqXqX3XqXqXwXBXvXNXNXNXNXNXNXNXNXNXNXNXbXbXbXbXbXbXbXbXbXNXNXNXNXNXNXNXNXNXNXNXbXBXwX3X4X4 3         ",
"        . o o 3 5 4XsXsXsXsXsXsXsXsXsXfXkXMXMXMXMXMXMXMXMXMXMXMXMXmXmXmXmXmXmXmXmXmXmXmXMXMXMXMXMXMXMXMXMXmXkXfX4X5 3 3         ",
"        o - - , < aXpXpXpXpXpXpXpXpXpXgXgXjXxXxXxXxXxXxXxXjXjXjXjXhXhXhXhXhXhXhXhXhXhXjXjXjXjXjXxXxXxXxXxXhXjXdXM.5 < <         ",
"        = = > : f.x.x.x.x.x.x.x.x.x.x.N.A.,X>X>X>X>X>X>X>X>X>X>X>X>X>X>X>X>X>X>X>X>X>X>X>X>X>X>X>X>X>X>X>X>X,XB.M.h.f.f.        ",
"        > ; : a.s.j.k.C.k.k.c.c.v.v.z.N.B.E.=X=X=X=X=X*X*X@X*X:X:X;X;X;X;X;X;X;X;X;X;X:X:X*X@X*X*X=X=X*X:X;X-XZ.N.z.g.h.        ",
"      ; : : a.s.l.j.C.C.C.C.k.v.g.n.n.m.m.U.U.Y.Y.Y.R.T.T.$X$X&X@X:X<X<X<X<X<X<X<X<X:X@X&X$X$XT.R.R.R.R.*X:X-XA.Z.N.N.z.z.      ",
"* * ; : a.s.s.l.j.k.C.C.C.C.j.g.n.2 6 +.-.;.;.<.<.q.q.J.H.I.I.$X&X:X<X<X<X<X<X<X<X<X:X&X$XI.I.H.J.q.Q.Y.R.:X-XA.A.Z.B.N.N.g.f.: ",
"* * ; : d.l.j.j.k.k.k.C.C.k.v.n.2 ..q e e e r M H K W W K.L.I.I.$X@X;X;X;X;X;X;X;X;X@X$XI.I.L.) W W 9.Q.R.=X;X-X-X-XA.B.N.g.f.: ",
"* * ; : s.l.c.c.v.z.z.z.z.z.M.2 +.e t t t t t y p s P L Z D.L.I. X%X%X*X*X*X%X*X*X%X%X XI.L.D.( L P K 0.Y.R.*X:X:X;X-XZ.N.g.f.: ",
"* * ; a.s.j.c.v.N.M.V.V.V.V.2 -.@.r y y y y y a s P L L C A S.L.I. XT.T.T.T.T.T.T.T. XI.L.D.A C L L P W ~. XT.%X1X:X-XZ.N.h.d.: ",
"* * ; a.s.j.c.N.V.-.-.;.1.;.;.*.H p a a a a p s P L L C C Z A P.P.H.H.H.H.H.H.H.H.H.H.P.S.A A C C L L _ ) G.I. X%X:X-XZ.N.h.d.: ",
"* * ; : s.l.z.M.-.*.5.5.5.5.5.K i i s i s s s P P L ( C Z Z Z Z ) ) ) ) ) ) ) ) ) ) ) ) Z Z Z Z C ( ( ( ( ) K. XT.*X-XZ.N.g.f.: ",
"- - , , b.z.N.m.;.K P s s i i i i i i i i i i K P ^ ^ S S Z Z Z Z Z Z Z Z Z Z S ( ^ ^ ^ ^ ^ ^ ^ ^ ^ ^ ^ ^ ^ U J.T.%X#XB.B.n., , ",
"1 1 1 2 2 m.U.Y.T P P s p u u u u u u  . .u u H H D G / / Z A A A A A A A A Z S ^ G D D D D D D D D D D D D I ~ J.T.T.E.U.2 2 6 ",
"X X 7 g V B 2X~ _ L L P u r | | | | | | | | | e e h M F U A D.D.D.D.D.D.D.D.A / F M h h h h h h h h h h h h v B J.I.I.J.<.;.O...",
"w w e h F ~ / _ ( ( ^ D h q ' } ' ' ' ' ' ' ' ' ` [ d m ~ S.F.F.F.F.F.F.F.F.S.~ m d 8 ` ' [ [ [ ' 8 [ ' ' 8 d m ~ L.L.K.W K H r ",
"t t t r D G ^ ^ ^ ^ G F j ' $ @ + $ $ $ $ $ $ + + $ 8 c I U S.S.S.S.S.S.S.S.U N z 8 $ + + $ $ $ $ $ $ $ $ ` 8 c I U K._ P K i u ",
"w w t r H D G G G D M z 0 ` + # + + + % + + + + # + ` f m ~ U U U U U U ~ ~ N c f $ + # # + + @ $ $ ` ` $ ` 8 k N ~ ~ G K u u H ",
"w w w q e h h h h h j 0 [ $ + + + + % + + + + + + + $ f z m N I N N N N m c d f ] $ + # # + + $ ` 8 8 8 8 8 f j m m m M h e e n ",
"} } } ' ' ' 8 8 8 8 ' ` ` $ $ $ $ $ $ $ $ $ $ @ % $ ` 8 d k c c c c z d f f [ ] ` $ $ @ @ $ $ ` 8 f d d d d d k z z z d 0 ' X.b ",
"$ $ $ $ $ $ $ $ $ ` $ $ $ $ $ $ $ $ $ $ $ $ $ $ $ $ ` 8 0 d d k k k k f { [ ] ] ] ] ] ] ] ] [ { f j k k k k k k j d d 8 ' ` ..B ",
"% % + + + + + @ $ ` ` ` ` ` ` ` ` ` ` ` ` ` ` ` ` ` 9 8 0 0 d j k l l k o.X.X.X.X.X.X.X.X.X.X.k l x x v v v l z j d 0 8 ` $ ..B ",
"      + + + + $ ` 8 8 8 8 8 8 8 8 8 8 8 8 8 8 8 8 8 0 0 0 d d k x v b b v #.#.#.#.#.x x x x #.v b n n n n n m x k d 0 8 9       ",
"        @ $ $ ` 8 f d d d d d d d d d d d d d d d d d d d d k x n J Y Y Y Y Y Y J Y Y Y Y Y Y Y Y Y Y R R Y J n x k d d         ",
"        ` ] [ { f j k k k k k k k k k k k l l l x x l l l l x b Y T E E E E E E E E E E E E E E E E E E E E T Y b x l k         ",
"      [ X.X.o.k l x v v v v v v v v v b b b >.>.>.>.>.>.>.>.>.6.8.w.e.e.e.e.e.e.e.e.e.e.e.e.e.e.e.e.e.e.e.e.w.8.6.>.&.b v       ",
"+ $ ] X.@.#.v b n n n n n n n n n n n Y 7.0.0.0.0.0.0.0.0.0.0.r.r.!.!.!.!.!.!.!.!.!.!.!.!.!.!.!.!.!.!.!.!.!.!.r.r.0.0.6.b l d 9 ",
"+ $ ] X.#.n Y Y Y Y Y Y Y Y Y Y Y Y T 0.r.Q.!.!.!.!.!.!.!.!.!.!.(.(.(.(.(.(.(.(.(.(.(.(.(.(.(.(.(.(.(.(.(.(.(.(.(.!.r.0.:.l d 8 ",
"+ $ ] X.#.J T E E T T T T T T R R T E w.!.(.`.`.`.`.`.`.`.`.`.`.`.`.`.`.`.`.`.(.`.`.`.`.`.`.`.`.`.`.`.`.`.`.`.'.'.`.!.0.>.l d 8 ",
"+ $ ] X.#.Y E E E E E E E E E E E E Q e.)._.].|.[.[.].].].].].].].].].].'.].'.'.].].].].].'.'.'.'.'.'.'.'.'.].|.|.].(.0.>.l d 8 ",
"+ $ ] X.#.Y E E E E E E E E E E E E Q e.).'.[.|.[.|.|.|.[.[.[.].].].'.'.].].].].].].].].].].].].].].'.'.].].].|.|.].(.0.>.l d 8 ",
"+ $ ] X.#.Y T E T T T T T T T R R T E w.!.(.`.`.`.`.`.`.`.`.`.`.`.`.`.(.`.`.`.`.`.`.`.`.`.`.`.`.`.`.`.(.`.`.`.'.'.`.!.0.>.l d 8 ",
"+ $ ] X.@.n Y Y Y Y Y Y Y Y Y J J J 7.7.0.r.Q.Q.Q.Q.Q.Q.Q.Q.Q.Q.Q.Q.Q.Q.Q.Q.Q.Q.Q.Q.Q.Q.Q.!.!.!.!.!.!.!.!.!.!.!.!.!.r.0.>.l d 8 ",
"+ $ ] X.o.@.#.#.#.#.#.#.#.#.#.#.#.#.#.*.:.<.,.,.,.,.,.,.,.,.,.,.,.,.,.,.,.,.,.,.,.,.,.6.6.0.0.0.0.0.0.0.0.0.0.0.0.0.6.<.b l d 8 ",
"      [ X.X.X.X.X.X.X.X.X.X.X.X.X.X.X.o.O.O.$.$.$.$.$.$.$.$.$.$.$.$.$.$.$.$.$.$.O.$.$.%.*.&.&.>.>.>.:.:.:.:.>.>.>.&.&.b x       ",
"        ] ] ] ] ] ] ] ] ] ] ] ] ] ] ] ] ] [ [ [ [ [ [ [ [ [ [ [ [ [ [ [ [ [ [ [ [ [ [ X.o.l l x x l l l l l l l l l l l         ",
"        $ $ $ $ $ $ $ $ $ $ $ $ $ $ $ $ $ $ $ $ $ $ $ $ $ $ $ $ $ $ $ $ $ $ $ $ $ $ ` [ 0 d d j j d d d d d d d d d d d         ",
"          + + + + + + + + + + + + + + + + + + + + + + + + + + + + + + + + + + # # + @ ` 8 0 d d d d d d d d d d d d d           "
};
