/* XPM */
static char *_0b593fd4b044630cc123f132395860e5RnRLK00RkMctcne[] = {
/* columns rows colors chars-per-pixel */
"64 64 147 2 ",
"   c #271626",
".  c #2B1625",
"X  c #2D1827",
"o  c #2C1B2B",
"O  c #341C27",
"+  c #381E27",
"@  c #331C28",
"#  c #3C2127",
"$  c #3F2228",
"%  c #521F2A",
"&  c #422627",
"*  c #472927",
"=  c #412428",
"-  c #472928",
";  c #4B2C2A",
":  c #56232A",
">  c #59252B",
",  c #542E28",
"<  c #5D292B",
"1  c #4C312E",
"2  c #543128",
"3  c #5C3528",
"4  c #5F3928",
"5  c #492F30",
"6  c #4D3331",
"7  c #612D2C",
"8  c #66312C",
"9  c #6C352C",
"0  c #663E28",
"q  c #6C3A2B",
"w  c #723C2F",
"e  c #793E2B",
"r  c #6F3D34",
"t  c #723E31",
"y  c #5B4037",
"u  c #6C432B",
"i  c #77452A",
"p  c #7C442A",
"a  c #7F4E29",
"s  c #6B4E3D",
"d  c #744135",
"f  c #7A4431",
"g  c #734D31",
"h  c #755237",
"j  c #76553B",
"k  c #745741",
"l  c #775A42",
"z  c #785A43",
"x  c #82462B",
"c  c #854A2C",
"v  c #8A4C2B",
"b  c #86512A",
"n  c #8C5729",
"m  c #8F592B",
"M  c #91542C",
"N  c #935F2E",
"B  c #9D5C2B",
"V  c #824B31",
"C  c #894F30",
"Z  c #875033",
"A  c #8C5434",
"S  c #84533E",
"D  c #8F5A3A",
"F  c #905734",
"G  c #915934",
"H  c #995F35",
"J  c #905C3D",
"K  c #A05F2C",
"L  c #94602F",
"P  c #9D602B",
"I  c #9A6235",
"U  c #9F6D36",
"Y  c #A4632B",
"T  c #A9652C",
"R  c #AB6A2A",
"E  c #B06C2B",
"W  c #B5702C",
"Q  c #B9722B",
"!  c #A36532",
"~  c #A46B37",
"^  c #AA6C34",
"/  c #A46A38",
"(  c #A17037",
")  c #AC7037",
"_  c #A27139",
"`  c #AE7239",
"'  c #B47531",
"]  c #B97731",
"[  c #BB7D35",
"{  c #B1753A",
"}  c #B5793A",
"|  c #BA7D3B",
" . c #915F40",
".. c #926346",
"X. c #94744E",
"o. c #A47943",
"O. c #A3744D",
"+. c #A57F4B",
"@. c #B57E45",
"#. c #BE813C",
"$. c #C18037",
"%. c #C2853C",
"&. c #C68B3D",
"*. c #CC8E3E",
"=. c #CF913F",
"-. c #D2933F",
";. c #A6804D",
":. c #B68047",
">. c #B7854E",
",. c #B8864F",
"<. c #A68353",
"1. c #A88756",
"2. c #A98857",
"3. c #A88858",
"4. c #B88A55",
"5. c #B98E59",
"6. c #BC905A",
"7. c #BA965D",
"8. c #C78F43",
"9. c #C79043",
"0. c #CD9143",
"q. c #CD9244",
"w. c #C9964C",
"e. c #CD984D",
"r. c #CF984D",
"t. c #D69740",
"y. c #D79840",
"u. c #DE9E41",
"i. c #D09A4E",
"p. c #CB9F57",
"a. c #C4985D",
"s. c #E09F41",
"d. c #CCA059",
"f. c #D1A056",
"g. c #D1A158",
"h. c #E3A342",
"j. c #ECAB43",
"k. c #CDA560",
"l. c #CEA965",
"z. c #D3A761",
"x. c #D4AB66",
"c. c #D3AD67",
"v. c #D4AC67",
"b. c #D4AD68",
"n. c #D8AF68",
"m. c #E0B86C",
"M. c #E4BD6E",
/* pixels */
"o o @ O O O X . . . . . . . . . . . . . . . . . . . . . . . . . . . . . . . . . . . . . . . . . . . . . . . . . . . . . . O O @ ",
"@ @ @ O O O O O O O O O O O O O O O O O O O O O O O O O O O O O O O O O O O O O O O O O O O O O O O O O O O O O O O O O O O O @ ",
"O O O O # = & - - - - - - - - - * * - - - ; ; ; ; ; ; ; ; - - - - ; ; ; ; ; ; ; ; ; ; ; 1 1 6 6 6 6 6 6 6 6 6 6 6 6 6 5 - $ + O ",
"O O O # - 2 4 0 0 0 0 0 0 0 0 0 0 0 0 u u u g g g g g g u u u u u u g g g g g g g g g g h j l l l l l l l l l l z l k s y 6 $ O ",
". . O = 2 u a n m m n n n n n n n n n m L I U ( ( ( ( U I N m m N I U ( ( ( ( ( ( ~ ( _ o.+.<.1.3.2.1.1.1.1.1.1.2.1.<.X.z y - O ",
". . O & 4 a P R R R R R R R R R R R R R ' [ %.&.&.&.&.%.[ ' R R ' [ %.&.&.&.&.&.&.&.&.8.w.p.k.l.l.l.l.l.l.l.l.l.c.b.l.7.X.s 5 O ",
". . O - 0 b Y W Q W E E E E E E R R E W ] $.&.*.=.=.*.&.$.] W W ] $.&.*.*.*.*.*.*.*.*.0.e.g.z.x.b.v.v.v.x.x.v.n.m.M.M.l.<.k 6 O ",
". . O - 0 c P R R T Y K B B B B B B B K ! ^ { { } } { { ^ ! K K ! ^ { { { { { } { { { } @.>.4.5.5.5.5.5.5.5.6.a.x.m.M.b.1.l 6 O ",
". . O & 3 i M B B M v c c x x x x x x c c A A A A A A A C c c c c C A A A A A A A A A A J J ..................O.5.x.m.c.2.z 6 O ",
". . O = 2 q c v c p w 9 9 9 9 9 9 9 9 q w w w w w w w w w q q q q w w w w w w w w w w t t d d d d d d d t r d S O.a.n.l.1.l 6 O ",
". . O = , q p x p w 8 7 8 9 q w w w w w w w w w w w w w w w w w w w w w w w w w w w w w w w w w w w w q 8 7 8 d ..6.v.l.1.l 6 O ",
". . O $ , q p x e 9 7 7 q f C A A A A A A A A A A A A A A A A A A A A A A A A A A A A A A A A A A A A V w 8 7 r ..5.v.l.2.l 6 O ",
". . O $ , q p x e 9 7 9 f A / ` { { ` ` ` ` ` ` ` ` { { { { { { { { { { { { { { ` ` ` ` ` ` ` ` ` ` ) ! A w 8 t ..5.b.l.3.l 6 O ",
". . O $ , q p x e 9 8 q C / #.*.-.=.*.*.*.*.*.*.*.*.*.*.*.*.*.*.*.*.*.*.*.*.*.*.*.*.*.*.*.*.*.*.=.-.*.#.! V q d ..5.x.l.1.l 6 O ",
". . O $ , q p x e 9 8 w A ` *.u.h.h.u.u.u.u.u.u.y.-.=.*.*.*.*.*.*.*.*.*.*.*.*.=.-.y.u.u.u.u.u.u.h.h.u.*.` A w d ..4.z.k.<.l 6 O ",
". . O $ , q p x e 9 8 w A { -.h.h.h.h.h.h.h.h.u.-.&.| } { { } } } } } } { { } | &.-.u.h.h.h.h.h.h.h.h.-.` A w d J >.f.p.+.j 1 O ",
". . O $ , q p x e 9 8 w A { -.h.h.h.h.h.h.h.h.y.&.{ I G A A G G G G G G A A G I { &.y.h.h.h.h.h.h.h.h.=.` A w t D @.e.w.o.h 1 O ",
". . O $ , q p x e 9 8 w A ` *.u.h.h.u.u.h.h.u.=.} I V w q q w w w w w w q q w V I } =.u.h.h.u.u.h.h.u.*.` A w t A } q.9._ g ; O ",
". . O $ , q p x e 9 8 w A ` *.u.h.h.u.u.y.y.=.#.~ A q 7 < < 7 7 7 7 7 7 < < 7 q A ~ #.=.y.y.u.u.h.h.u.*.` A w t A } q.9._ g ; O ",
". . O $ , q p x e 9 8 w A ` *.u.h.h.u.y.=.%.} ~ A f 8 < > > > > > > > > > > < 8 f A ~ } %.=.y.u.h.h.u.*.` A w t J @.e.w.o.h 1 O ",
". . O $ , q p x e 9 8 w A ` *.u.h.h.u.-.%.` H A f q 7 < > > > > > > > > > > < 7 q f A H ` %.-.u.h.h.u.*.` A w d J >.g.p.+.j 1 O ",
". . O $ , q p x e 9 8 w A ` *.u.h.h.u.=.} I V q 8 7 7 7 < < 7 7 7 7 7 7 < < 7 7 7 8 q V I } =.u.h.h.u.*.` A w d ..4.z.k.<.l 6 O ",
". . O $ , q p x e 9 8 w A ` *.u.h.h.u.*.{ A w 7 > < < 7 8 9 q w w w w q 9 8 7 7 < < 7 w A { *.u.h.h.u.*.` A w d ..4.z.k.<.l 6 O ",
". . O $ , q p x e 9 8 w A ` *.u.h.h.u.*.` A 9 > : : < 7 q f Z A G G A A f w 8 < > > < q A ` *.u.h.h.u.*.` A w d  .,.g.d.;.j 1 O ",
". . O $ , q p x e 9 8 w A ` *.u.h.h.u.*.` A 9 > : : > 8 f G ~ { } } { / G f 9 < > > < q A ` *.u.h.h.u.*.` A w d J :.i.e.o.h 1 O ",
". . O $ , q p x e 9 8 w A ` *.u.h.h.u.*.{ A w 7 > > 7 q A / #.*.-.-.*.#./ A q 7 > > 7 w A { *.u.h.h.u.*.` A w t A } 0.8._ g ; O ",
". . O $ , q p x e 9 8 w A ` *.u.h.h.u.=.} H V w 9 9 w V H } =.u.h.h.u.*.{ A w 7 > > 7 w A { *.u.h.h.u.*.` A w w A { &.%.U g ; O ",
". . O $ , q p x e 9 8 w A ` *.u.h.h.u.-.%.) H A A A A I ` &.y.h.j.j.h.-.} G w 7 > > 7 w A { *.u.h.h.u.*.` A w w C ^ $.[ I u ; O ",
". X O $ , q p x e 9 8 w A ` *.u.h.h.u.y.*.%.} { ` ` { } %.-.u.h.j.j.h.-.} G w 7 > > 7 w A { =.u.h.h.u.*.` A w w c ! ] ' N u - O ",
". X O $ , q p x e 9 8 w A ` *.u.h.h.u.u.y.-.=.*.*.*.*.=.-.y.u.u.h.h.u.*.{ A w 7 > > 7 w A { *.u.h.h.u.*.` A w q c K W R m u - O ",
"X X O $ , q p x e 9 8 w A ` *.u.h.h.h.u.u.u.u.u.u.u.u.y.y.-.=.*.=.-.*.#.~ A q < > > 7 w A { *.u.h.h.u.*.` A w 9 x B E R n 0 - O ",
"X X O $ , q p x e 9 8 w A ` *.u.h.h.u.h.s.h.h.h.h.h.h.u.-.%.} { { { ` ~ G f 8 < : : < q A { *.u.h.h.u.*.` A w 9 x B R R n 0 * O ",
"X X O $ , q p x e 9 8 w A ` *.u.h.h.u.u.u.h.h.h.h.h.h.t.%.` I A A A A Z f q 7 < : : < q A ` *.u.h.h.u.*.` A w 9 x B R R n 0 * O ",
"X X O $ , q p x e 9 8 w A ` *.u.h.h.u.u.u.u.u.u.h.h.u.-.} I V w q q w q 9 8 7 7 < < 7 w A { *.u.h.h.u.*.` A w 9 x B E R n 0 - O ",
"X X O $ , q p x e 9 8 w A ` *.u.h.h.u.u.u.u.u.u.h.h.u.*.{ A w 7 < < 7 7 8 9 q w q q w V H } =.u.h.h.u.*.` A w 9 x B E R n 0 - O ",
"X X O $ , q p x e 9 8 w A ` *.u.h.h.u.u.u.u.u.u.h.h.u.*.` A 9 > % : > < 9 f C A A A A H ) %.-.u.h.h.u.*.` A w 9 x B E R n 0 - O ",
"X X O $ , q p x e 9 8 w A ` *.u.h.h.u.u.u.u.u.u.h.h.u.*.` A 9 > % % > 8 f F ~ ` { { { } %.*.y.u.h.h.u.*.` A w 9 x B E R n 0 - O ",
"X X O $ , q p x e 9 8 w A ` *.u.h.h.u.u.u.u.u.u.h.h.u.*.` A w 7 > > 7 q A / #.*.-.=.*.=.-.y.u.u.h.h.u.*.` A w 9 x B E R n 0 - O ",
"X X O $ , q p x e 9 8 w A ` *.u.h.h.u.u.u.u.u.u.h.h.u.=.} I V w 9 9 w V I } =.u.h.h.u.u.u.u.u.u.h.h.u.*.` A w 9 x B E R n 0 - O ",
"X X O $ , q p x e 9 8 w A ` *.u.h.h.u.u.u.u.u.u.h.h.u.-.%.` I G A A G I ` %.y.h.h.h.h.h.h.s.u.u.h.h.u.*.` A w 9 x B E R n 0 - O ",
"X X O $ , q p x e 9 8 w A ` *.u.h.h.u.u.u.u.u.u.u.u.u.y.=.%.| } { { } | %.-.u.h.h.h.h.h.h.u.u.u.h.h.u.*.` A w 9 x B E R n 0 - O ",
"X X O $ , q p x e 9 8 w A ` *.u.h.h.u.u.u.u.u.u.u.u.u.u.y.-.=.*.*.*.*.=.-.y.u.u.u.u.u.u.u.u.u.u.h.h.u.*.` A w 9 x B E R n 0 - O ",
"X X O $ , q p x e 9 8 w A ` *.u.h.h.u.u.u.u.u.u.u.u.u.u.y.-.=.*.*.*.*.=.-.y.u.u.u.u.u.u.u.u.u.u.h.h.u.*.` A w 9 x B E R n 0 - O ",
"X X O $ , q p x e 9 8 w A ` *.u.h.h.u.u.u.u.u.u.u.s.u.y.*.%.} { ` ` { } %.*.y.u.s.u.u.u.u.u.u.u.h.h.u.*.` A w 9 x B E R n 0 - O ",
"X X O $ , q p x e 9 8 w A ` *.u.h.h.u.u.u.u.u.u.h.h.u.-.%.) H A A A A H ) %.-.u.h.h.u.u.u.u.u.u.h.h.u.*.` A w 9 x B E R n 0 - O ",
"X X O $ , q p x e 9 8 w A ` *.u.h.h.u.u.u.u.u.u.h.h.u.=.} I V w 9 9 w V I } =.u.h.h.u.u.u.u.u.u.h.h.u.*.` A w 9 x B E R n 0 - O ",
"X X O $ , q p x e 9 8 w A ` *.u.h.h.u.u.u.u.u.u.h.h.u.-.} I V w 9 9 w V I } -.u.h.h.u.u.u.u.u.u.h.h.u.*.` A w 9 x B E R n 0 - O ",
"X X O $ , q p x e 9 8 w A { -.h.h.h.h.h.h.h.h.h.h.h.h.t.%.` H A A A A H ` %.t.h.h.h.h.h.h.h.h.h.h.h.h.=.` A w 9 x B E R n 0 - O ",
"X X O $ , q p x e 9 8 w A { -.h.h.h.h.h.h.h.h.h.h.h.h.u.-.%.} { ` ` { } %.-.u.h.h.h.h.h.h.h.h.h.h.h.h.-.{ A w 9 x B E R n 0 - O ",
"X X O $ , q p x e 9 8 w A ` *.u.h.h.u.u.u.u.u.u.u.u.u.y.y.-.=.*.*.*.*.=.-.y.y.u.u.u.u.u.u.u.u.u.h.h.u.*.` A w 9 x B E R n 0 - O ",
"X X O $ , q p x e 9 8 q C / #.*.-.-.*.*.*.*.*.*.*.*.*.*.*.*.*.*.*.*.*.*.*.*.*.*.*.*.*.*.*.*.*.*.-.-.*.#./ C q 9 x B E R n 0 - O ",
"X X O = , q p x e 9 7 9 f G / ` { { ` ` ` ` ` ` ` ` ` ` { { { { } } { { { { ` ` ` ` ` ` ` ` ` ` { { ` / A f 9 9 x B E R n 0 - O ",
"X X O = , q p x p 9 8 8 q f C A A A A A A A A A A A A A A A F G G G G F A A A A A A A A A A A A A A A C f q 8 9 c B E R n 0 - O ",
"X X O $ , q p x p w 8 7 8 9 q w w w w w w w w w w w w w w w w w w w w w w w w w w w w w w w w w w w w q 9 7 7 9 c K E R n 0 - O ",
"X X O = , q p x p w 9 8 8 8 8 8 8 8 8 8 8 8 8 8 8 8 8 8 8 8 8 8 8 8 8 8 8 8 8 8 8 8 8 8 8 8 8 8 8 8 8 8 7 7 8 w v Y E R n 0 - O ",
". X O = , q p c x p w w 9 9 9 9 9 9 9 9 9 9 9 9 9 9 9 9 9 9 9 9 9 9 9 9 9 9 9 9 9 9 9 9 9 9 9 9 9 9 9 9 9 9 w p M T W R m 0 - O ",
". X O = , q p v v x p p p e e e e e e e e e e e e e e e e e e e e e e e e e e e e e e e e e e e e e e e e e p c B R Q R m 0 - O ",
"X X O $ , q p c v c x x x x x x x x x x x x x x x x x x x x x x x x x x x x x x x x x x x x x x x x x x x x x v B R W R n 0 - O ",
"X X O $ ; 8 w p p p p p p p p p p p p p p p p p p p p p p p p p p p p p p p p p p p p p p p p p p p p p p p p c M B Y B a 4 & O ",
"O O O # - , 8 q q q q q q q q q q q q q q q q q q q q q q q q q q q q q q q q q q q q q q q q q q q q q q q q q i c b a u 2 = O ",
"O O O O $ - ; , , , , , , , , , , , , , , , , , , , , , , , , , , , , , , , , , , , , , , , , , , , , , , , , 2 3 0 0 4 2 - # O ",
"O O O O + # $ $ = = = = = = = = = = = = = = = = = $ $ $ $ $ $ $ $ $ $ $ $ $ $ $ $ $ $ $ $ $ $ $ $ = = = $ $ = = & - - & = # O O ",
"O O O O O O O O O O O O O O O O O O O O O O O O @ @ O O O O O O O O O O O O O O O O O O O O O O @ @ O O O O O O O O O O O O O O ",
"O O O @ O O O X X X X X X X X X X X X X O O O X X . . .                                     . . . X X O O O X X X X . X X O O O "
};
