/* XPM */
static char *_25d4545354245028e95702983a39fa8YvR2xKbmuA7vBsH9[] = {
/* columns rows colors chars-per-pixel */
"64 64 111 2 ",
"   c None",
".  c #130F16",
"X  c #120D1A",
"o  c #14121D",
"O  c #151423",
"+  c #16172A",
"@  c #171A2D",
"#  c #181B2F",
"$  c #171B32",
"%  c #181D35",
"&  c #181D38",
"*  c #1A213E",
"=  c #1B2445",
"-  c #1B2549",
";  c #1D284B",
":  c #1D2A52",
">  c #1F2E5A",
",  c #212E53",
"<  c #223057",
"1  c #223058",
"2  c #223666",
"3  c #253865",
"4  c #22376A",
"5  c #23386A",
"6  c #253C74",
"7  c #253F79",
"8  c #26407C",
"9  c #29427B",
"0  c #274583",
"q  c #284684",
"w  c #294788",
"e  c #2A4889",
"r  c #29488A",
"t  c #29488B",
"y  c #29498B",
"u  c #29498C",
"i  c #294A8D",
"p  c #2A4A8E",
"a  c #2A4B8F",
"s  c #2A4C91",
"d  c #2A4C92",
"f  c #2A4D93",
"g  c #2B4D93",
"h  c #2D4D92",
"j  c #2B4D94",
"k  c #2B4E94",
"l  c #2B4E95",
"z  c #2B4E96",
"x  c #2B4F96",
"c  c #2B4F97",
"v  c #2C4F97",
"b  c #2B4F98",
"n  c #2C4F98",
"m  c #2B5098",
"M  c #2C5098",
"N  c #2C5099",
"B  c #2D5099",
"V  c #2C509A",
"C  c #2C519A",
"Z  c #2D519A",
"A  c #2C519B",
"S  c #2D519B",
"D  c #2C529D",
"F  c #2D529D",
"G  c #2D539D",
"H  c #2E539D",
"J  c #2D529E",
"K  c #315298",
"L  c #30539B",
"P  c #2F54A0",
"I  c #2F55A2",
"U  c #2F56A3",
"Y  c #3055A1",
"T  c #3056A2",
"R  c #3357A3",
"E  c #3157A5",
"W  c #3158A7",
"Q  c #3259A9",
"!  c #325AAA",
"~  c #335BAB",
"^  c #355AA8",
"/  c #355AA9",
"(  c #355BA9",
")  c #355BAA",
"_  c #335BAC",
"`  c #355CAC",
"'  c #365DAD",
"]  c #355EB2",
"[  c #355FB2",
"{  c #355FB4",
"}  c #3660B4",
"|  c #3660B5",
" . c #3761B7",
".. c #3863B9",
"X. c #3863BB",
"o. c #3864BC",
"O. c #3964BC",
"+. c #3965BD",
"@. c #3A65BD",
"#. c #3A65BE",
"$. c #3A66BF",
"%. c #3A67C0",
"&. c #3A67C1",
"*. c #3B68C3",
"=. c #3B68C4",
"-. c #3B69C4",
";. c #3C69C5",
":. c #3C6AC6",
">. c #3D6CCA",
",. c #3D6CCB",
"<. c #3D6DCC",
/* pixels */
"          . . . . . . . . . . . . . . . . . . . . . . . . . . . . . . . . . . . . . . . . . . . . . . . . . . . . . .           ",
"        o o o o o o o o o o o o o o o o o o o o o o o o o o o o o o o o o o o o o o o o o o o o o o o o o o o o o o o o         ",
"        % % % % % % % % % % % % # @ @ @ @ @ @ @ @ @ @ @ @ @ @ @ @ @ @ @ @ @ @ @ @ @ @ @ @ @ @ @ @ @ @ @ @ @ @ @ @ @ @ @         ",
"      = ; , < < < < < < 1 < , , ; ; - - - - - - - - - - - - - - - - - - - - - - - - - - - - - - - - - - - - - - - - - = &       ",
". o % ; 3 9 q q q q q q q q 9 9 6 5 2 2 2 2 2 2 2 2 2 2 2 2 2 2 2 2 2 2 2 2 2 2 2 2 2 2 2 2 2 2 2 2 2 2 2 2 2 5 5 2 2 : = + o X ",
". o % , 9 K ^ ' ' ^ ^ ^ ^ ^ R K h e q 0 0 q q q q q q q q q q q q q q q q q q q q q q q q q q q q q q q q q q q q q 8 2 - @ o X ",
". o % < q ^ @.-.*.@.@.@.@... .~ R M l f f l l l l l l l l l l l l l l l l l l l l l l l l l l l l l l l l l l l M l q 5 ; @ o X ",
". o % < q ' -.<.,.:.-.&.@. .] ~ P H M m M M M M M M M M M M M M M M M M M M M M M M M M M M M M M M M M M M M H H M q 5 ; @ o X ",
". o % < q ' *.,.,.:.&...{ _ W P H M M b b M M M M M M M M M M M M M M M M M M M M M M M M M M M M M M M M M M M H l q 5 ; @ o X ",
". o % < q ^ @.:.:.&...] ~ P M M v l l l l l l l l l l l l l l l l l l l l l l l l l l l l l l l l l l l l l l M M l q 5 ; @ o X ",
". o % < q ^ @.-.&... ._ R M l l l l l l l l l l l l l l l l l l l l l l l l l l l l l l l l l l l l l l l l l M M l q 5 ; @ o X ",
". o % < q ^ @.&...] _ E H v l f l l l l l l l l l l l l l l l l l l l l l l l l l l l l l l l l l l l l l l l M M l q 5 ; @ o X ",
". o % 1 q ^ @.@.{ ~ R H M l l l l l l l l l l l l l l l l l l l l l l l l l l l l l l l l l l l l l l l l l l M M l q 5 ; @ o X ",
". o % < q ^ .. ._ P M v l l l l l l l l l l l l l l l l l l l l l l l l l l l l l l l l l l l l l l l l l l l M M l q 5 ; @ o X ",
". o % , 9 R } ] W M l l l l l l l l l l l l l l l l l l l l l l l l l l l l l l l l l l l l l l l l l l l l l M M l q 5 ; @ o X ",
". o % , 9 K ~ ~ P M l f l l l l l l l l l l l l l l l l l l l l l l l l l l l l l l l l l l l l l l l l l l l M M l q 5 ; @ o X ",
". o # ; 6 h R P H v l l l l l l l l l l l l l l l l l l l l l l l l l l l l l l l l l l l l l l l l l l l l l M M l q 5 ; @ o X ",
". o @ ; 5 e M H M l l l l l l l l l l l l l l l l l l l l l l l l l l l l l l l l l l l l l l l l l l l l l l n M l q 5 ; @ o X ",
". o @ - 2 q l M M l l l l l l l l l l l l l l l l l l l l l l l l l l l l l l l l l l l l l l l l l l l l l l l f e 8 2 - @ o X ",
". o @ - 2 0 f m b l l l l l l l l l l l l l l l l l l l l l l l l l l l l l l l l l l l l l l l l l l l l l f i q 8 5 : * + o X ",
". o @ - 2 0 f M b l l l l l l l l l l l l l l l l l l l l l l l l l l l l l l l l l l l l l l l l l l l l l i q 7 4 > - & O o X ",
". o @ - 2 q l M M l l l l l l l l l l l l l l l l l l l l l l l l l l l l l l l l l l l l l l l l l l l l l i 8 5 > - * @ O o X ",
". o @ - 2 q l M M l l l l l l l l l l l l l l l l l l l l l l l l l l l l l l l l l l l l l l l l l l l n l e 7 2 : = & + O o X ",
". o @ - 2 q l M M l l l l l l l l l l l l l l l l l l l l l l l l l l l l l l l l l l l l l l l l l l l M l e 7 2 ; * $ + O o X ",
". o @ - 2 q l M M l l l l l l l l l l l l l l l l l l l l l l l l l l l l l l l l l l l l l l l l l l l M l e 7 2 ; * $ + O o X ",
". o @ - 2 q l M M l l l l l l l l l l l l l l l l l l l l l l l l l l l l l l l l l l l l l l l l l l l n l e 7 2 : = % + O o X ",
". o @ - 2 q l M M l l l l l l l l l l l l l l l l l l l l l l l l l l l l l l l l l l l l l l l l l l l n l e 7 2 : = % + O o X ",
". o @ - 2 q l M M l l l l l l l l l l l l l l l l l l l l l l l l l l l l l l l l l l l l l l l l l l l n l e 7 2 : = & + O o X ",
". o @ - 2 q l M M l l l l l l l l l l l l l l l l l l l l l l l l l l l l l l l l l l l l l l l l l l l n l e 7 2 : = & + O o X ",
". o @ - 2 q l M M l l l l l l l l l l l l l l l l l l l l l l l l l l l l l l l l l l l l l l l l l l l n l i 7 2 : = & + O o X ",
". o @ - 2 q l M M l l l l l l l l l l l l l l l l l l l l l l l l l l l l l l l l l l l l l l l l l l l M l e 7 2 : = & + O o X ",
". o @ - 2 q l M M l l l l l l l l l l l l l l l l l l l l l l l l l l l l l l l l l l l l l l l l l l M M l i 8 2 : = & + O o X ",
". o @ - 2 q l M M l l l l l l l l l l l l l l l l l l l l l l l l l l l l l l l l l l l l l l l l l l M M l i 8 2 : = & + O o X ",
". o @ - 2 q l M M l l l l l l l l l l l l l l l l l l l l l l l l l l l l l l l l l l l l l l l l l l l v l e 7 2 : = & + O o X ",
". o @ - 2 q l M M l l l l l l l l l l l l l l l l l l l l l l l l l l l l l l l l l l l l l l l l l l f f i 0 6 2 : = & + O o X ",
". o @ - 2 q l M M l l l l l l l l l l l l l l l l l l l l l l l l l l l l l l l l l l l l l l l l l f i q 8 6 2 > ; = & + O o X ",
". o @ - 2 q l M M l l l l l l l l l l l l l l l l l l l l l l l l l l l l l l l l l l l l l l l l l i 0 7 4 2 > : - = & @ O o X ",
". o @ - 2 q l M M l l l l l l l l l l l l l l l l l l l l l l l l l l l l l l l l l l l l l l l l l i 8 4 > : ; - - = & @ O o X ",
". o @ - 2 q l M M l l l l l l l l l l l l l l l l l l l l l l l l l l l l l l l l l l l l l l l n l w 7 2 : - = = = = & @ O o X ",
". o @ - 2 q l M M l l l l l l l l l l l l l l l l l l l l l l l l l l l l l l l l l l l l l l l n l w 7 2 ; = = = = = & + O o X ",
". o @ - 2 q l M M l l l l l l l l l l l l l l l l l l l l l l l l l l l l l l l l l l l l l l l M l e 7 2 : = = = - = & @ O o X ",
". o @ - 2 q l M M l l l l l l l l l l l l l l l l l l l l l l l l l l l l l l l l l l l l l l l n l e 7 2 : - = = - = & @ O o X ",
". o @ - 2 q l M M l l l l l l l l l l l l l l l l l l l l l l l l l l l l l l l l l l l l l l l n l e 7 2 : - = - - = & @ O o X ",
". o @ - 2 q l M M l l l l l l l l l l l l l l l l l l l l l l l l l l l l l l l l l l l l l l l n l e 7 2 : - = - - = & @ O o X ",
". o @ - 2 q l M M l l l l l l l l l l l l l l l l l l l l l l l l l l l l l l l l l l l l l l l n l e 7 2 : = = - - = & @ O o X ",
". o @ - 2 q l M M l l l l l l l l l l l l l l l l l l l l l l l l l l l l l l l l l l l l l l l n l e 7 2 : = = = - = & @ O o X ",
". o @ - 2 q l M M l l l l l l l l l l l l l l l l l l l l l l l l l l l l l l l l l l l l l l l M l e 7 2 : = = = = = & @ O o X ",
". o @ - 2 q l M M l l l l l l l l l l l l l l l l l l l l l l l l l l l l l l l l l l l l l l M M l i 7 2 : = = = = = & @ O o X ",
". o @ - 2 q l M M l l l l l l l l l l l l l l l l l l l l l l l l l l l l l n M n n n n n n M M M l i 8 2 : - = = = = & + O o X ",
". o @ - 2 q l M M l l l l l l l l l l l l l l l l l l l l l l l l l l l l l l l l l l l l l l l l l e 7 2 : - = = = = & + O o X ",
". o @ - 2 q l M M l l l l l l l l l l l l l l l l l l l l l l l l l l f i i e e w w w w e e e i i e 0 6 2 : - = - = = & @ O o X ",
". o @ - 2 q l M M l l l l l l l l l l l l l l l l l l l l l l M M l f i 0 8 7 7 7 7 7 7 7 7 7 7 8 7 6 2 > ; - - - - = & @ O o X ",
". o @ - 2 q l M M l l l l l l l l l l l l l l l l l n M M n M M n v f q 7 4 2 2 2 2 2 2 2 2 2 2 2 2 2 > : - = = - - = & @ O o X ",
". o @ - 2 q l M M l l l l l l l l l l l l l l l l l l l l l l l l l i 8 4 > : ; : : : : : : : : : : : ; - - - - - - = & @ O o X ",
". o @ - 2 q l M M l l l l l l l l l l l l l l f i i e e e e e i i w 0 6 2 : - = = = - - = - = - - = - - - - - - - - = & @ O o X ",
". o @ - 5 q l H M M M M M M M M M M M M M n l i q 8 7 7 7 7 7 8 8 7 6 2 > ; = = = = = = = = = = = = = - - - - - - - = & @ O o X ",
". o @ - 5 q M H H M M M M M M M M M M M M M f q 7 5 2 2 2 2 2 2 2 2 2 > : - - = = = - - - - - = = = = = - - - - - - = & @ O o X ",
". o @ - 2 q l M l l l l l l l l l l l l l l e 8 4 > : ; ; : : : : : : ; - - - - = - - - - - - = = = = = - - - = - - = & @ O o X ",
". o @ - 2 7 q q q q q q q q q q q q q q q q 8 5 > - = * * = = = = = = = = = = = = = = = = = = = = = = = = = = = = = * & @ O o X ",
". o @ = : 2 2 5 5 2 2 2 2 2 2 2 2 2 2 5 5 2 2 : - & & $ $ % % & & & & & & & & & & & & & & & & & & & & & & & & & & & & $ + O o X ",
"      & = - - - - - - - - - - - - - - ; ; - = * & @ + + + + + + + + + + + + @ @ + + + @ @ @ @ @ @ @ @ @ @ @ @ @ + + + + O       ",
"        @ @ @ @ @ @ @ @ @ @ @ @ @ @ @ @ @ @ @ + O O O O O O O O O O O O O O O O O O O O O O O O O O O O O O O O O O O O         ",
"        o o o o o o o o o o o o o o o o o o o o o o o o o o o o o o o o o o o o o o o o o o o o o o o o o o o o o o o o         ",
"          . . . . . . . . . . . . . . . . . . o o o o o o o o o o o o o o o o o o o o o o o o o o o o o o o o o o o o           "
};
