/* XPM */
static char *_f8b3e2d853f4bc9f728efa416473e3fyBJW7ihHlQjH68IX[] = {
/* columns rows colors chars-per-pixel */
"64 64 244 2 ",
"   c #2E66C7",
".  c #2D66C7",
"X  c #2D65C7",
"o  c #2D65C6",
"O  c #2C65C6",
"+  c #2C64C6",
"@  c #2B64C6",
"#  c #2A63C5",
"$  c #2962C5",
"%  c #2861C4",
"&  c #2862C5",
"*  c #2A62C5",
"=  c #2F66C7",
"-  c #2F67C7",
";  c #3067C8",
":  c #346ACA",
">  c #386ECC",
",  c #3C71CD",
"<  c #3E73CF",
"1  c #3F73CF",
"2  c #2B63C5",
"3  c #2B63C6",
"4  c #3169C8",
"5  c #3C71CE",
"6  c #497BD3",
"7  c #5484D9",
"8  c #5A89DB",
"9  c #5C8ADC",
"0  c #5B8ADC",
"q  c #5A89DC",
"w  c #2760C4",
"e  c #356BCA",
"r  c #477AD3",
"t  c #5D8BDD",
"y  c #6F9AE5",
"u  c #7AA3EA",
"i  c #7DA5EC",
"p  c #7CA5EB",
"a  c #7AA3EB",
"s  c #2F67C8",
"d  c #3D72CE",
"f  c #5485D9",
"g  c #709BE6",
"h  c #88AEF1",
"j  c #95B9F7",
"k  c #99BCF9",
"l  c #99BBF9",
"z  c #96B9F8",
"x  c #96B9F7",
"c  c #3B70CD",
"v  c #3E72CE",
"b  c #3E73CE",
"n  c #3B71CD",
"m  c #4C7ED5",
"M  c #6491E0",
"N  c #80A7ED",
"B  c #97BAF8",
"V  c #A5C5FE",
"C  c #A9C8FF",
"Z  c #A8C8FF",
"A  c #A6C6FF",
"S  c #A5C6FF",
"D  c #5888DB",
"F  c #5989DB",
"G  c #5887DB",
"H  c #5787DA",
"J  c #6592E1",
"K  c #77A1E9",
"L  c #8DB2F3",
"P  c #9FC1FC",
"I  c #AAC9FF",
"U  c #AECCFF",
"Y  c #ADCCFF",
"T  c #ACCBFF",
"R  c #ABCAFF",
"E  c #AACAFF",
"W  c #7BA3EB",
"Q  c #7CA4EB",
"!  c #79A2EA",
"~  c #78A2EA",
"^  c #80A8ED",
"/  c #8BB1F3",
"(  c #98BBF8",
")  c #A3C3FE",
"_  c #A9C9FF",
"`  c #ACCAFF",
"'  c #98BBF9",
"]  c #9CBEFA",
"[  c #A0C2FC",
"{  c #A4C5FE",
"}  c #A7C7FF",
"|  c #A7C6FF",
" . c #96BAF8",
".. c #A5C5FF",
"X. c #A3C4FD",
"o. c #A1C2FC",
"O. c #9FC0FB",
"+. c #9EBFFB",
"@. c #9EBFFA",
"#. c #AECDFF",
"$. c #AFCDFF",
"%. c #A1C2FD",
"&. c #8EB3F4",
"*. c #78A1EA",
"=. c #5887DA",
"-. c #99BBF8",
";. c #93B7F5",
":. c #90B4F3",
">. c #8FB3F2",
",. c #8FB4F3",
"<. c #A8C7FF",
"1. c #ADCBFF",
"2. c #8CB1F3",
"3. c #81A8EE",
"4. c #A3C3FD",
"5. c #99BCF8",
"6. c #85ABED",
"7. c #80A7EA",
"8. c #7FA6E9",
"9. c #A4C4FE",
"0. c #A0C1FC",
"q. c #93B6F4",
"w. c #79A1E6",
"e. c #729CE3",
"r. c #709AE1",
"t. c #719AE2",
"y. c #729BE2",
"u. c #729CE2",
"i. c #9EC0FB",
"p. c #9FC1FB",
"a. c #97BAF7",
"s. c #8BB0F0",
"d. c #7DA5E9",
"f. c #719BE2",
"g. c #6B96DE",
"h. c #6994DD",
"j. c #6A95DE",
"k. c #6B95DE",
"l. c #6994DE",
"z. c #8FB3F3",
"x. c #94B7F5",
"c. c #9ABCF8",
"v. c #A2C2FC",
"b. c #91B5F4",
"n. c #81A8EB",
"m. c #779FE5",
"M. c #6D98E0",
"N. c #6894DD",
"B. c #6793DC",
"V. c #6893DD",
"C. c #6995DD",
"Z. c #6A95DD",
"A. c #6F99E0",
"S. c #78A0E5",
"D. c #82A9EB",
"F. c #91B5F3",
"G. c #7EA6E9",
"H. c #86ACED",
"J. c #9BBDF9",
"K. c #81A7EA",
"L. c #7DA4E8",
"P. c #77A0E5",
"I. c #6C96DF",
"U. c #78A1E6",
"Y. c #7DA5E8",
"T. c #6F99E1",
"R. c #6D97E0",
"E. c #6995DE",
"W. c #6D97DF",
"Q. c #6793DD",
"!. c #6591DC",
"~. c #6390DB",
"^. c #628FDB",
"/. c #628EDB",
"(. c #6792DC",
"). c #6692DC",
"_. c #6C96DE",
"`. c #5D8BD9",
"'. c #5786D7",
"]. c #5484D6",
"[. c #5383D5",
"{. c #5C8AD8",
"}. c #6C97DF",
"|. c #6792DD",
" X c #497BD1",
".X c #4477D0",
"XX c #4376CF",
"oX c #4477CF",
"OX c #5282D5",
"+X c #5C8AD9",
"@X c #6B96DF",
"#X c #638FDB",
"$X c #3D72CD",
"%X c #366DCA",
"&X c #346BC9",
"*X c #366CCA",
"=X c #6490DC",
"-X c #5B89D8",
";X c #4F80D4",
":X c #4175CE",
">X c #356CCA",
",X c #5585D6",
"<X c #5484D5",
"1X c #4578D0",
"2X c #3B70CC",
"3X c #2A63C6",
"4X c #5584D6",
"5X c #6E98DF",
"6X c #6D98DF",
"7X c #4377CF",
"8X c #336AC9",
"9X c #3168C8",
"0X c #2862C4",
"qX c #98BAF8",
"wX c #6592E0",
"eX c #3C72CE",
"rX c #346BCA",
"tX c #4679D2",
"yX c #3A70CD",
"uX c #A3C4FE",
"iX c #9ABCF9",
"pX c #6F9AE6",
"aX c #3F74CF",
"sX c #8FB3F4",
"dX c #6693E1",
"fX c #5C8BDC",
"gX c #9ABDFA",
"hX c #83AAEF",
"jX c #7CA5EC",
"kX c #7AA2EA",
"lX c #95B8F7",
"zX c #9DBFFA",
"xX c #92B6F4",
"cX c #93B6F5",
"vX c #769FE5",
"bX c #83A9EB",
"nX c #89AEEF",
"mX c #9DBEFA",
"MX c #739CE3",
"NX c #7AA2E7",
"BX c #86ABED",
"VX c #82A8EB",
"CX c #78A0E6",
"ZX c white",
/* pixels */
"                                . X o O O O O O O O O O o o O + @ # $ % % % % % % % % % % % % & $ $ * # # # # # # * # # @ O .   ",
"                                                                                                  = = - - - - - - - - =         ",
"o X .                                 . . . . . . . . . X o   ; : > , < 1 1 < < < < < < < < < < < < < < < < < < 1 1 < , > : ;   ",
"$ $ 2 @ + o                     o + @ 3 2 2 3 3 3 3 3 2 * $ @ 4 5 6 7 8 9 0 q q q q q q q q q q q q q q q q q q 0 9 8 7 6 5 4 @ ",
"w % $ # @ O .                 . O @ # # * # # # # # # $ % w # e r t y u i p a u u u u u u u u u u u u u u u u a p i u y t r e # ",
"@ +   =                             = - - - - - - - -   + @ s d f g h j k l z x x x x x x x x x x x x x x x x z l k j h g f d s ",
"c 5 v , > : ;   o X . . X o   ; : > , < 1 1 < < < < < b n c 1 m M N B V C Z A A A A A A A A A A A A A A A S S A Z C V B N M m 1 ",
"D F F 7 6 5 4 @ $ * 2 2 * $ @ 4 5 6 7 8 9 0 q q q q q 8 G H q J K L P I U Y T T T T T T T T T T T T T T R R E R T Y I P L K J 0 ",
"W Q ! y t r e # w % $ $ % w # e r t y u i p a u u u u u ! ~ a ^ / ( ) _ ` T R R R R R R R R R R R R R R R I _ _ I R C ) ( / ^ W ",
"( k j h g f d s @ +     + @ s d f g h j k l z x x x x x j j x ' ] [ { A } } A A A A A A A A A A A A A A A A A | } } A { [ ] '  .",
"Z _ ..( N M m 1 c n b b n c 1 m M N B V C Z A S S A A A A A A A A A A ..X.o.O.+.@.@.+.+.+.+.+.+.@.@.+.O.o.X...A | | A A A A A A ",
"#.$.R %.&.*.J q H =.8 8 G H q J K L P I Y T R E R R T T T T T R R I Z { O.-.;.:.>.,.:.:.:.:.:.:.,.>.:.;.-.O.{ } Z Z <.Z _ I R T ",
"1.Y R ..k 2.3.a *.! u u ! ~ a ^ / ( ) C R I _ _ I R R R R R R R R R Z 4.5.>.6.7.8.8.7.7.7.7.7.7.8.8.7.6.>.5.4.Z _ _ Z C _ I R R ",
"} } A 9.0.] ( x j j x x j j x ' ] [ { A } } | A A A A A A A A A } <.S O.q.6.w.e.r.t.y.u.u.u.u.y.t.r.e.w.6.q.O.S } } A A A A A A ",
"@.@.+.O.o.4.V A A A A A A A A A A A A A | | A ..X.o.O.+.@.@.+.i.p.0.@.a.s.d.f.g.h.h.j.k.k.k.k.j.l.h.g.y.d.s.a.@.0.p.i.+.+.+.+.+.",
"z.>.:.x.c.v.Z T 1.1.T T T T T R I _ Z <.Z Z } { O.-.;.:.>.,.:.:.b.b.:.s.n.m.M.N.B.V.h.C.Z.Z.C.h.N.V.j.A.S.D.s.:.b.F.:.:.:.:.:.:.",
"8.G.7.H.:.J.V R Y T R R R R R R I _ C Z _ _ Z 4.5.>.6.7.8.8.7.7.K.n.7.L.P.f.I.h.N.h.j.k.k.k.k.j.j.j.k.M.u.U.Y.7.n.K.7.7.7.7.7.7.",
"t.r.e.w.6.;.O.A Z <.A A A A A A A A A A } } S O.q.6.w.e.r.t.y.u.e.e.u.f.T.R.g.j.l.l.E.E.E.E.E.E.l.l.E.k.W.T.f.u.e.e.u.u.u.u.u.y.",
"h.N.k.f.d.s.a.@.0.p.i.+.+.+.+.+.+.+.+.i.p.0.@.a.s.d.f.g.h.h.j.k.k.k.k.k.g.g.j.l.Q.!.~.^././.^.^././.^.~.!.Q.E.k.g.g.k.k.j.j.j.j.",
"(.).V.M.m.n.s.:.b.b.:.:.:.:.:.:.:.:.:.:.b.b.:.s.n.m.M.N.B.V.h.h.C.h.C.j.g._.g.N.~.`.'.].[.[.].].[.[.].'.{./.(.h.j.j.Z.h.h.N.V.V.",
"V.V.h.I.f.P.L.7.n.K.7.7.7.7.7.7.7.7.7.7.K.n.7.L.P.f.I.h.N.h.j.k.k.k.k.g.}.W.I.|.`.[. X.XXXXXoXoXXXXXoX XOX+X!.j._._.k.j.j.h.h.N.",
"j.E.j.g.R.T.f.u.e.e.u.u.u.u.u.u.u.u.u.u.e.e.u.f.T.R.g.j.l.l.E.E.E.E.E.j.g.@XE.#X'. X$X%X&Xe *X*Xe &X%X$X X'.^.l.g.g.j.E.j.j.j.j.",
"k.j.j.j.j.j.k.k.k.k.k.k.k.k.k.k.k.k.k.k.k.k.k.k.g.g.j.l.Q.!.~.^././.^.^.~.=X/.-X;X:X>X= O X     X O = >X:X;X-X/.=X~.^.~.!.Q.l.j.",
"}.}.I.g.g.j.j.C.h.h.C.C.C.C.C.C.C.C.C.C.h.h.C.j.g._.g.N.~.`.'.].[.[.].].,X,X<X;X1X2X4 O 3X@ + + @ 3XO 4 2X1X;X<X4X].].'.`.#XN.@X",
"5X6X}.I._.g.g.k.j.j.k.k.k.k.k.k.k.k.k.k.j.j.k.g.}.W.I.|.`.[. X.XXXXXoXoX1X1XoX:X2X>X; o + + O O + + o ; >X2X:XoXoX7X.X X[.`.|.I.",
"I.g.j.j.j.j.E.E.E.E.E.E.E.E.E.E.E.E.E.E.E.E.E.j.g.@XE.#X'. X$X%X&Xe *X*X%X%X*Xe 8X9X-   .         .   - 9X8Xe *Xe &X%X$X X'.#XE.",
"=X~.^.^.^.^.^.^.^.^.^.^.^.^.^.^.^.^.^.^.^.^.^.^.~.=X/.-X;X:X>X= O X                                             X o = >X:X;X-X/.",
",X,X].].].].].].].].].].].].].].].].].].].].].].,X,X<X;X1X2X4 O 3X@ + + + + + O o X                     X o O + 3 3XO 4 2X1X;X<X",
"1X1XoXoXoXoXoXoXoXoXoXoXoXoXoXoXoXoXoXoXoXoXoXoX1X1XoX:X2X>X; o + + O O O O O o X .                     . X o O + + o ; >X2X:XoX",
"%X%X*X*X*X*X*X*X*X*X*X*X*X*X*X*X*X*X*X*X*X*X*X*X%X%X*Xe 8X9X-   .                                                 .   - 9X8Xe *X",
"                                                                                                              . . . .           ",
"$ $ $ $ $ $ $ $ $ $ $ $ $ $ $ $ $ $ $ $ # 3 @ + + + + O o X                                             o + @ 3 2 3 3 2 # $ $ $ ",
"% % % % % % % % % % % % % % % % % % % $ # @ + O o O O o X .                                           . O @ # # # # # * $ $ & % ",
"                                                                                                            = - - - - = =       ",
"< < < < < < < < < < < < < < < < 1 1 < , > : ;   X X                                   . . . . . X o   ; : > , < 1 1 < < < < < < ",
"q q q q q q q q q q q q q q q q 0 9 8 7 6 5 4 + # + X                           o + @ 3 2 2 3 2 * $ @ 4 5 6 7 8 9 0 q q q q q q ",
"u u u u u u u u u u u u u u u a p i u y t r e 2 0X# X                         . O @ # # * # # $ % w # e r t y u i p a u u u u u ",
"x x x x x x x x x x x x x x x z l k j h g f d s 2 +                                 = - - - -   + @ s d f g h j k l z x x x x x ",
"A A A A A A A A A S S ........A Z C V qX^ wXm eXrX9Xs   o X . . . . . . X o   ; : > , < 1 1 < b n c 1 m M N ( .._ Z A A A A A A ",
"T T T T T T T T R R E I I I I R T Y I 0.&.! wX7 tXyX9X@ $ * 2 3 3 3 3 2 * $ @ 4 5 6 7 8 9 0 q 8 =.H q J *.&.%.R $.U T T T T T T ",
"R R R R R R R R R I _ _ C C _ _ E R C uXiX&.^ pX0 tXrX# w % $ # # # # $ % w # e r t y u i p a u ! *.a 3.2.k ..R Y 1.R R R R R R ",
"A A A A A A A A A A A | | | | | } } A V uX0.qXh pX7 eXs @ +   - - - -   + @ s d f g h j k l z x j j x ( ] 0.9.A } } A A A A A A ",
"+.+.+.+.@.@.+.O.o.X...A | A A A A A A } C I ..( N M m aXc , b < < < < b n c 1 m M N B V C Z A S A A A V 4.o.O.+.@.@.+.+.+.+.+.+.",
":.:.:.:.,.>.:.;.-.O.{ } Z Z <.<.} } <.C R Y R %.sX! dXfXD D 8 q 8 8 8 8 G H q J K L P I Y T R R ` T R Z v.c.x.:.>.z.:.:.:.:.:.:.",
"7.7.7.7.8.8.7.6.>.5.4.Z I _ Z Z Z Z Z C R T R ..gX&.hXjXu kXa a u u u u ! ~ a ^ / ( ) C R I _ I R T R V J.:.H.7.G.8.7.7.7.7.7.7.",
"u.u.u.y.t.r.e.w.6.q.O.S <.} A A A A A A A | A 9.0.] ( x lXj x x x x x x j j x ' ] [ { A } } | } <.Z A O.;.6.w.e.r.t.y.u.u.u.u.u.",
"k.k.k.j.h.h.g.f.d.s.a.@.0.p.i.+.+.+.+.+.+.+.+.@.zXzXzXi.0.4.V A A A A A A A A A A A A A | | A ..V 4.O.a.s.L.f.g.h.h.j.k.k.k.k.k.",
"Z.Z.C.h.V.B.N.M.m.n.s.:.b.b.:.:.:.:.:.:.:.:.:.:.F.xXx.a.zXX.C T 1.T T T T T T R I _ Z <.Z Z } V 0.c.cXs.7.vXM.N.B.V.h.C.Z.Z.C.C.",
"k.k.k.j.h.N.h.I.f.P.L.7.n.K.7.7.7.7.7.7.7.7.7.7.7.K.bXnXxXmXA R 1.T R R R R R R I _ C Z _ _ Z 4.c.,.6.Y.vXr.@Xh.N.h.j.k.k.k.k.k.",
"E.E.E.E.l.l.j.g.R.T.f.u.e.e.u.u.u.u.u.u.u.u.u.y.f.t.MXNXBX;.O.A Z <.A A A A A A A A A A } } S O.cX6.w.f.M.@Xg.j.l.l.E.E.E.E.E.E.",
"/./.^.~.!.Q.l.j.g.g.k.k.k.k.k.k.j.j.j.j.j.j.j.j.h.N.k.f.d.s.a.@.0.p.i.+.+.+.+.+.+.+.+.i.p.0.@.a.s.d.y.g.h.l.j.l.Q.!.~.^././.^.^.",
"[.[.].'.`.~.N.g._.g.j.C.h.C.h.h.h.N.V.V.V.V.V.V.(.).V.M.m.n.s.:.b.b.:.:.:.:.:.:.:.:.:.:.F.b.:.s.VXS.A.j.Z.k.g.N.~.`.'.].[.[.].].",
"XXXX.X X[.`.|.I.W.}.g.k.k.k.k.j.j.h.h.N.N.N.N.N.V.V.h.I.f.P.L.7.n.K.7.7.7.7.7.7.7.7.7.7.K.n.7.Y.CXu.M.g.g.}.I.|.`.[. X.XXXXXoXoX",
"e &X%X$X X'.#XE.@Xg.j.E.E.E.E.E.j.j.j.j.j.j.j.j.j.E.j.g.R.T.f.u.e.e.u.u.u.u.u.u.u.u.u.u.e.e.u.f.T.W.k.j.k.g.l.#X'. X$X%X&Xe *X*X",
"X O = >X:X;X-X/.=X~.^.^././.^.~.!.Q.l.j.k.j.j.j.j.j.j.j.j.j.k.k.k.k.k.k.k.k.k.k.k.k.k.k.g.g.k.E.Q.!.~.^.#X=X/.-X;X:X>X= O X     ",
"@ 3XO 4 2X1X;X<X,X,X].].[.[.].'.`.#XN.@X}.}.I.I.I.I.I.g.g.j.j.C.h.h.C.C.C.C.C.C.C.C.C.Z.j.j.h.(./.{.'.].].4X<X;X1X2X4 O 3X@ + + ",
"+ + o ; >X2X:XoX1X1XoXoXXXXX.X X[.`.|.I.5XW.}.}.}.}.}.I._.g.g.k.j.j.k.k.k.k.k.k.k.k.k.k._._.j.!.+XOX X.X7XoXoX:X2X>X; o + + O O ",
"  .   - 9X8Xe *X%X%X*X*Xe &X%X$X X'.#XE.I.g.j.j.j.j.j.j.j.j.E.E.E.E.E.E.E.E.E.E.E.E.E.j.g.g.l.^.'. X$X%X&X>X*Xe 8X9X-   .       ",
"                        X O = >X:X;X-X/.=X~.^.^.^.^.^.^.^.^.^.^.^.^.^.^.^.^.^.^.^.^.^.^.~.=X/.-X;X:X>X= o X                     ",
"        X o O + + + + + @ 3XO 4 2X1X;X<X,X,X].].].].].].].].].].].].].].].].].].].].].].,X,X<X;X1X2X4 O 3X3 + O o X             ",
"        . X o O O O O O + + o ; >X2X:XoX1X1XoXoXoXoXoXoXoXoXoXoXoXoXoXoXoXoXoXoXoXoXoXoX1X1XoX:X2X>X; o + + O o X .             ",
"                          .   - 9X8Xe *X%X%X*X*X*X*X*X*X*X*X*X*X*X*X*X*X*X*X*X*X*X*X*X*X%X%X*Xe 8X9X-   .                       ",
"                                                                                                      . . . . . . . .           ",
"                                X o O + + + + + + + + + + + + @ 3 # $ $ $ $ $ $ $ $ $ $ $ $ $ $ $ # 2 3 @ @ 3 3 2 2 3 @ + o     "
};
